<svg width="561" height="281" viewBox="0 0 561 281" fill="none" xmlns="http://www.w3.org/2000/svg">
<path d="M28.2434 152.851H525.327V167.073H28.2434V152.851Z" fill="#9EA29D"/>
<path d="M28.2434 167.073H560.477V181.295H28.2434V167.073Z" fill="#254F6C"/>
<path d="M10.6721 181.295H542.906V195.518H10.6721V181.295Z" fill="#CEC6B3"/>
<path d="M28.2434 195.518H548.547V215.962H28.2434V195.518Z" fill="#2B576D"/>
<path d="M43.8711 215.962H514.655V252.407H43.8711V215.962Z" fill="#ECBCBA"/>
<path d="M514.662 215.962H542.906V252.407H514.662V215.962Z" fill="#D8D2D0"/>
<path d="M0 252.407H553.57V280.851H0V252.407Z" fill="#424242"/>
<path d="M77.9431 236.633C78.4097 236.661 78.6431 236.871 78.6431 237.263C78.6431 237.487 78.5497 237.66 78.3631 237.781C78.1857 237.893 77.9291 237.94 77.5931 237.921L77.2151 237.893C75.6471 237.781 74.8631 236.941 74.8631 235.373V232.321H74.1631C73.9111 232.321 73.7151 232.265 73.5751 232.153C73.4444 232.041 73.3791 231.878 73.3791 231.663C73.3791 231.448 73.4444 231.285 73.5751 231.173C73.7151 231.061 73.9111 231.005 74.1631 231.005H74.8631V229.717C74.8631 229.465 74.9424 229.264 75.1011 229.115C75.2597 228.966 75.4744 228.891 75.7451 228.891C76.0064 228.891 76.2164 228.966 76.3751 229.115C76.5337 229.264 76.6131 229.465 76.6131 229.717V231.005H77.8031C78.0551 231.005 78.2464 231.061 78.3771 231.173C78.5171 231.285 78.5871 231.448 78.5871 231.663C78.5871 231.878 78.5171 232.041 78.3771 232.153C78.2464 232.265 78.0551 232.321 77.8031 232.321H76.6131V235.499C76.6131 236.19 76.9304 236.558 77.5651 236.605L77.9431 236.633ZM83.559 230.837C85.1644 230.837 85.967 231.775 85.967 233.651V237.095C85.967 237.356 85.8877 237.562 85.729 237.711C85.5797 237.86 85.3697 237.935 85.099 237.935C84.8284 237.935 84.6137 237.86 84.455 237.711C84.2964 237.562 84.217 237.356 84.217 237.095V233.651C84.217 233.156 84.1144 232.797 83.909 232.573C83.713 232.34 83.4004 232.223 82.971 232.223C82.467 232.223 82.061 232.382 81.753 232.699C81.4544 233.016 81.305 233.441 81.305 233.973V237.095C81.305 237.356 81.2257 237.562 81.067 237.711C80.9084 237.86 80.6937 237.935 80.423 237.935C80.1524 237.935 79.9377 237.86 79.779 237.711C79.6297 237.562 79.555 237.356 79.555 237.095V228.723C79.555 228.48 79.6344 228.284 79.793 228.135C79.961 227.986 80.1757 227.911 80.437 227.911C80.6984 227.911 80.9084 227.981 81.067 228.121C81.2257 228.261 81.305 228.452 81.305 228.695V231.957C81.5384 231.593 81.8464 231.318 82.229 231.131C82.621 230.935 83.0644 230.837 83.559 230.837ZM93.1625 235.975C93.3211 235.975 93.4471 236.036 93.5405 236.157C93.6431 236.278 93.6945 236.442 93.6945 236.647C93.6945 236.936 93.5218 237.179 93.1765 237.375C92.8591 237.552 92.4998 237.697 92.0985 237.809C91.6971 237.912 91.3145 237.963 90.9505 237.963C89.8491 237.963 88.9765 237.646 88.3325 237.011C87.6885 236.376 87.3665 235.508 87.3665 234.407C87.3665 233.707 87.5065 233.086 87.7865 232.545C88.0665 232.004 88.4585 231.584 88.9625 231.285C89.4758 230.986 90.0545 230.837 90.6985 230.837C91.3145 230.837 91.8511 230.972 92.3085 231.243C92.7658 231.514 93.1205 231.896 93.3725 232.391C93.6245 232.886 93.7505 233.469 93.7505 234.141C93.7505 234.542 93.5731 234.743 93.2185 234.743H89.0885C89.1445 235.387 89.3265 235.863 89.6345 236.171C89.9425 236.47 90.3905 236.619 90.9785 236.619C91.2771 236.619 91.5385 236.582 91.7625 236.507C91.9958 236.432 92.2571 236.33 92.5465 236.199C92.8265 236.05 93.0318 235.975 93.1625 235.975ZM90.7405 232.069C90.2645 232.069 89.8818 232.218 89.5925 232.517C89.3125 232.816 89.1445 233.245 89.0885 233.805H92.2525C92.2338 233.236 92.0938 232.806 91.8325 232.517C91.5711 232.218 91.2071 232.069 90.7405 232.069ZM102.021 237.963C101.339 237.963 100.737 237.818 100.215 237.529C99.7014 237.24 99.3048 236.829 99.0248 236.297C98.7448 235.765 98.6048 235.144 98.6048 234.435C98.6048 233.726 98.7494 233.1 99.0388 232.559C99.3374 232.008 99.7528 231.584 100.285 231.285C100.817 230.986 101.428 230.837 102.119 230.837C102.483 230.837 102.847 230.888 103.211 230.991C103.584 231.094 103.911 231.234 104.191 231.411C104.489 231.607 104.639 231.854 104.639 232.153C104.639 232.358 104.587 232.526 104.485 232.657C104.391 232.778 104.265 232.839 104.107 232.839C104.004 232.839 103.897 232.816 103.785 232.769C103.673 232.722 103.561 232.666 103.449 232.601C103.243 232.48 103.047 232.386 102.861 232.321C102.674 232.246 102.459 232.209 102.217 232.209C101.638 232.209 101.19 232.4 100.873 232.783C100.565 233.156 100.411 233.698 100.411 234.407C100.411 235.107 100.565 235.648 100.873 236.031C101.19 236.404 101.638 236.591 102.217 236.591C102.45 236.591 102.655 236.558 102.833 236.493C103.019 236.418 103.225 236.32 103.449 236.199C103.589 236.115 103.71 236.054 103.813 236.017C103.915 235.97 104.018 235.947 104.121 235.947C104.27 235.947 104.396 236.012 104.499 236.143C104.601 236.274 104.653 236.437 104.653 236.633C104.653 236.792 104.615 236.932 104.541 237.053C104.475 237.165 104.363 237.268 104.205 237.361C103.915 237.548 103.579 237.697 103.197 237.809C102.814 237.912 102.422 237.963 102.021 237.963ZM111.223 230.865C111.493 230.865 111.708 230.94 111.867 231.089C112.025 231.238 112.105 231.439 112.105 231.691V237.123C112.105 237.366 112.021 237.562 111.853 237.711C111.694 237.86 111.484 237.935 111.223 237.935C110.971 237.935 110.77 237.865 110.621 237.725C110.471 237.585 110.397 237.394 110.397 237.151V236.801C110.182 237.174 109.893 237.464 109.529 237.669C109.165 237.865 108.754 237.963 108.297 237.963C106.617 237.963 105.777 237.02 105.777 235.135V231.691C105.777 231.439 105.856 231.238 106.015 231.089C106.173 230.94 106.383 230.865 106.645 230.865C106.915 230.865 107.13 230.94 107.289 231.089C107.447 231.238 107.527 231.439 107.527 231.691V235.149C107.527 235.634 107.625 235.994 107.821 236.227C108.017 236.46 108.325 236.577 108.745 236.577C109.23 236.577 109.617 236.418 109.907 236.101C110.205 235.774 110.355 235.345 110.355 234.813V231.691C110.355 231.439 110.434 231.238 110.593 231.089C110.751 230.94 110.961 230.865 111.223 230.865ZM117.748 230.865C117.991 230.846 118.182 230.898 118.322 231.019C118.462 231.14 118.532 231.322 118.532 231.565C118.532 231.817 118.471 232.004 118.35 232.125C118.229 232.246 118.009 232.326 117.692 232.363L117.272 232.405C116.721 232.461 116.315 232.648 116.054 232.965C115.802 233.282 115.676 233.679 115.676 234.155V237.095C115.676 237.366 115.592 237.576 115.424 237.725C115.256 237.865 115.046 237.935 114.794 237.935C114.542 237.935 114.332 237.865 114.164 237.725C114.005 237.576 113.926 237.366 113.926 237.095V231.677C113.926 231.416 114.005 231.215 114.164 231.075C114.332 230.935 114.537 230.865 114.78 230.865C115.023 230.865 115.219 230.935 115.368 231.075C115.517 231.206 115.592 231.397 115.592 231.649V232.209C115.769 231.798 116.031 231.481 116.376 231.257C116.731 231.033 117.123 230.907 117.552 230.879L117.748 230.865ZM120.153 237.935C119.901 237.935 119.691 237.865 119.523 237.725C119.365 237.576 119.285 237.366 119.285 237.095V231.691C119.285 231.42 119.365 231.215 119.523 231.075C119.691 230.935 119.901 230.865 120.153 230.865C120.405 230.865 120.615 230.935 120.783 231.075C120.951 231.215 121.035 231.42 121.035 231.691V237.095C121.035 237.366 120.951 237.576 120.783 237.725C120.615 237.865 120.405 237.935 120.153 237.935ZM120.153 229.619C119.836 229.619 119.584 229.535 119.397 229.367C119.211 229.19 119.117 228.961 119.117 228.681C119.117 228.401 119.211 228.177 119.397 228.009C119.584 227.841 119.836 227.757 120.153 227.757C120.461 227.757 120.709 227.841 120.895 228.009C121.091 228.177 121.189 228.401 121.189 228.681C121.189 228.961 121.096 229.19 120.909 229.367C120.723 229.535 120.471 229.619 120.153 229.619ZM125.962 237.963C125.262 237.963 124.646 237.818 124.114 237.529C123.592 237.24 123.186 236.824 122.896 236.283C122.607 235.742 122.462 235.112 122.462 234.393C122.462 233.674 122.607 233.049 122.896 232.517C123.186 231.976 123.592 231.56 124.114 231.271C124.646 230.982 125.262 230.837 125.962 230.837C126.662 230.837 127.274 230.982 127.796 231.271C128.328 231.56 128.734 231.976 129.014 232.517C129.304 233.049 129.448 233.674 129.448 234.393C129.448 235.112 129.304 235.742 129.014 236.283C128.734 236.824 128.328 237.24 127.796 237.529C127.274 237.818 126.662 237.963 125.962 237.963ZM125.948 236.605C126.518 236.605 126.952 236.418 127.25 236.045C127.549 235.672 127.698 235.121 127.698 234.393C127.698 233.674 127.549 233.128 127.25 232.755C126.952 232.372 126.522 232.181 125.962 232.181C125.402 232.181 124.968 232.372 124.66 232.755C124.362 233.128 124.212 233.674 124.212 234.393C124.212 235.121 124.362 235.672 124.66 236.045C124.959 236.418 125.388 236.605 125.948 236.605ZM136.297 230.865C136.568 230.865 136.782 230.94 136.941 231.089C137.1 231.238 137.179 231.439 137.179 231.691V237.123C137.179 237.366 137.095 237.562 136.927 237.711C136.768 237.86 136.558 237.935 136.297 237.935C136.045 237.935 135.844 237.865 135.695 237.725C135.546 237.585 135.471 237.394 135.471 237.151V236.801C135.256 237.174 134.967 237.464 134.603 237.669C134.239 237.865 133.828 237.963 133.371 237.963C131.691 237.963 130.851 237.02 130.851 235.135V231.691C130.851 231.439 130.93 231.238 131.089 231.089C131.248 230.94 131.458 230.865 131.719 230.865C131.99 230.865 132.204 230.94 132.363 231.089C132.522 231.238 132.601 231.439 132.601 231.691V235.149C132.601 235.634 132.699 235.994 132.895 236.227C133.091 236.46 133.399 236.577 133.819 236.577C134.304 236.577 134.692 236.418 134.981 236.101C135.28 235.774 135.429 235.345 135.429 234.813V231.691C135.429 231.439 135.508 231.238 135.667 231.089C135.826 230.94 136.036 230.865 136.297 230.865ZM141.478 237.963C140.461 237.963 139.64 237.762 139.014 237.361C138.716 237.184 138.566 236.932 138.566 236.605C138.566 236.418 138.618 236.269 138.72 236.157C138.823 236.036 138.949 235.975 139.098 235.975C139.257 235.975 139.476 236.05 139.756 236.199C140.055 236.339 140.326 236.446 140.568 236.521C140.82 236.596 141.138 236.633 141.52 236.633C141.912 236.633 142.216 236.568 142.43 236.437C142.654 236.306 142.766 236.124 142.766 235.891C142.766 235.732 142.72 235.606 142.626 235.513C142.542 235.42 142.384 235.336 142.15 235.261C141.926 235.177 141.581 235.084 141.114 234.981C140.284 234.813 139.686 234.575 139.322 234.267C138.968 233.959 138.79 233.534 138.79 232.993C138.79 232.582 138.912 232.214 139.154 231.887C139.397 231.551 139.728 231.294 140.148 231.117C140.578 230.93 141.063 230.837 141.604 230.837C141.996 230.837 142.374 230.888 142.738 230.991C143.102 231.084 143.429 231.224 143.718 231.411C144.017 231.598 144.166 231.845 144.166 232.153C144.166 232.34 144.115 232.498 144.012 232.629C143.91 232.75 143.784 232.811 143.634 232.811C143.532 232.811 143.429 232.792 143.326 232.755C143.233 232.708 143.112 232.643 142.962 232.559C142.692 232.419 142.458 232.316 142.262 232.251C142.066 232.176 141.824 232.139 141.534 232.139C141.189 232.139 140.914 232.209 140.708 232.349C140.512 232.489 140.414 232.68 140.414 232.923C140.414 233.156 140.517 233.334 140.722 233.455C140.928 233.576 141.324 233.698 141.912 233.819C142.538 233.95 143.028 234.099 143.382 234.267C143.737 234.435 143.989 234.645 144.138 234.897C144.297 235.149 144.376 235.471 144.376 235.863C144.376 236.498 144.11 237.006 143.578 237.389C143.056 237.772 142.356 237.963 141.478 237.963ZM150.464 237.935C150.212 237.935 150.002 237.865 149.834 237.725C149.675 237.576 149.596 237.366 149.596 237.095V231.691C149.596 231.42 149.675 231.215 149.834 231.075C150.002 230.935 150.212 230.865 150.464 230.865C150.716 230.865 150.926 230.935 151.094 231.075C151.262 231.215 151.346 231.42 151.346 231.691V237.095C151.346 237.366 151.262 237.576 151.094 237.725C150.926 237.865 150.716 237.935 150.464 237.935ZM150.464 229.619C150.147 229.619 149.895 229.535 149.708 229.367C149.521 229.19 149.428 228.961 149.428 228.681C149.428 228.401 149.521 228.177 149.708 228.009C149.895 227.841 150.147 227.757 150.464 227.757C150.772 227.757 151.019 227.841 151.206 228.009C151.402 228.177 151.5 228.401 151.5 228.681C151.5 228.961 151.407 229.19 151.22 229.367C151.033 229.535 150.781 229.619 150.464 229.619ZM157.127 230.837C157.948 230.837 158.559 231.07 158.961 231.537C159.362 232.004 159.563 232.708 159.563 233.651V237.095C159.563 237.356 159.483 237.562 159.325 237.711C159.175 237.86 158.965 237.935 158.695 237.935C158.424 237.935 158.209 237.86 158.051 237.711C157.892 237.562 157.813 237.356 157.813 237.095V233.749C157.813 233.217 157.71 232.83 157.505 232.587C157.309 232.344 156.996 232.223 156.567 232.223C156.063 232.223 155.657 232.382 155.349 232.699C155.05 233.016 154.901 233.441 154.901 233.973V237.095C154.901 237.356 154.821 237.562 154.663 237.711C154.504 237.86 154.289 237.935 154.019 237.935C153.748 237.935 153.533 237.86 153.375 237.711C153.225 237.562 153.151 237.356 153.151 237.095V231.677C153.151 231.434 153.23 231.238 153.389 231.089C153.547 230.94 153.762 230.865 154.033 230.865C154.275 230.865 154.471 230.94 154.621 231.089C154.779 231.229 154.859 231.416 154.859 231.649V232.027C155.092 231.644 155.405 231.35 155.797 231.145C156.189 230.94 156.632 230.837 157.127 230.837ZM164.378 237.963C163.697 237.963 163.095 237.818 162.572 237.529C162.059 237.24 161.662 236.829 161.382 236.297C161.102 235.765 160.962 235.144 160.962 234.435C160.962 233.726 161.107 233.1 161.396 232.559C161.695 232.008 162.11 231.584 162.642 231.285C163.174 230.986 163.786 230.837 164.476 230.837C164.84 230.837 165.204 230.888 165.568 230.991C165.942 231.094 166.268 231.234 166.548 231.411C166.847 231.607 166.996 231.854 166.996 232.153C166.996 232.358 166.945 232.526 166.842 232.657C166.749 232.778 166.623 232.839 166.464 232.839C166.362 232.839 166.254 232.816 166.142 232.769C166.03 232.722 165.918 232.666 165.806 232.601C165.601 232.48 165.405 232.386 165.218 232.321C165.032 232.246 164.817 232.209 164.574 232.209C163.996 232.209 163.548 232.4 163.23 232.783C162.922 233.156 162.768 233.698 162.768 234.407C162.768 235.107 162.922 235.648 163.23 236.031C163.548 236.404 163.996 236.591 164.574 236.591C164.808 236.591 165.013 236.558 165.19 236.493C165.377 236.418 165.582 236.32 165.806 236.199C165.946 236.115 166.068 236.054 166.17 236.017C166.273 235.97 166.376 235.947 166.478 235.947C166.628 235.947 166.754 236.012 166.856 236.143C166.959 236.274 167.01 236.437 167.01 236.633C167.01 236.792 166.973 236.932 166.898 237.053C166.833 237.165 166.721 237.268 166.562 237.361C166.273 237.548 165.937 237.697 165.554 237.809C165.172 237.912 164.78 237.963 164.378 237.963ZM173.594 235.975C173.753 235.975 173.879 236.036 173.972 236.157C174.075 236.278 174.126 236.442 174.126 236.647C174.126 236.936 173.953 237.179 173.608 237.375C173.291 237.552 172.931 237.697 172.53 237.809C172.129 237.912 171.746 237.963 171.382 237.963C170.281 237.963 169.408 237.646 168.764 237.011C168.12 236.376 167.798 235.508 167.798 234.407C167.798 233.707 167.938 233.086 168.218 232.545C168.498 232.004 168.89 231.584 169.394 231.285C169.907 230.986 170.486 230.837 171.13 230.837C171.746 230.837 172.283 230.972 172.74 231.243C173.197 231.514 173.552 231.896 173.804 232.391C174.056 232.886 174.182 233.469 174.182 234.141C174.182 234.542 174.005 234.743 173.65 234.743H169.52C169.576 235.387 169.758 235.863 170.066 236.171C170.374 236.47 170.822 236.619 171.41 236.619C171.709 236.619 171.97 236.582 172.194 236.507C172.427 236.432 172.689 236.33 172.978 236.199C173.258 236.05 173.463 235.975 173.594 235.975ZM171.172 232.069C170.696 232.069 170.313 232.218 170.024 232.517C169.744 232.816 169.576 233.245 169.52 233.805H172.684C172.665 233.236 172.525 232.806 172.264 232.517C172.003 232.218 171.639 232.069 171.172 232.069ZM181.326 227.911C181.587 227.911 181.802 227.986 181.97 228.135C182.138 228.284 182.222 228.48 182.222 228.723V237.095C182.222 237.347 182.142 237.548 181.984 237.697C181.825 237.846 181.615 237.921 181.354 237.921C181.092 237.921 180.882 237.846 180.724 237.697C180.565 237.548 180.486 237.347 180.486 237.095V236.745C180.28 237.128 179.982 237.426 179.59 237.641C179.207 237.856 178.768 237.963 178.274 237.963C177.686 237.963 177.158 237.814 176.692 237.515C176.234 237.216 175.875 236.796 175.614 236.255C175.362 235.704 175.236 235.074 175.236 234.365C175.236 233.656 175.362 233.035 175.614 232.503C175.875 231.971 176.234 231.56 176.692 231.271C177.149 230.982 177.676 230.837 178.274 230.837C178.768 230.837 179.207 230.94 179.59 231.145C179.972 231.35 180.266 231.64 180.472 232.013V228.695C180.472 228.462 180.546 228.275 180.696 228.135C180.854 227.986 181.064 227.911 181.326 227.911ZM178.736 236.605C179.296 236.605 179.725 236.414 180.024 236.031C180.332 235.648 180.486 235.102 180.486 234.393C180.486 233.684 180.332 233.142 180.024 232.769C179.725 232.386 179.3 232.195 178.75 232.195C178.19 232.195 177.756 232.382 177.448 232.755C177.14 233.128 176.986 233.665 176.986 234.365C176.986 235.074 177.14 235.625 177.448 236.017C177.756 236.409 178.185 236.605 178.736 236.605ZM189.44 235.975C189.598 235.975 189.724 236.036 189.818 236.157C189.92 236.278 189.972 236.442 189.972 236.647C189.972 236.936 189.799 237.179 189.454 237.375C189.136 237.552 188.777 237.697 188.376 237.809C187.974 237.912 187.592 237.963 187.228 237.963C186.126 237.963 185.254 237.646 184.61 237.011C183.966 236.376 183.644 235.508 183.644 234.407C183.644 233.707 183.784 233.086 184.064 232.545C184.344 232.004 184.736 231.584 185.24 231.285C185.753 230.986 186.332 230.837 186.976 230.837C187.592 230.837 188.128 230.972 188.586 231.243C189.043 231.514 189.398 231.896 189.65 232.391C189.902 232.886 190.028 233.469 190.028 234.141C190.028 234.542 189.85 234.743 189.496 234.743H185.366C185.422 235.387 185.604 235.863 185.912 236.171C186.22 236.47 186.668 236.619 187.256 236.619C187.554 236.619 187.816 236.582 188.04 236.507C188.273 236.432 188.534 236.33 188.824 236.199C189.104 236.05 189.309 235.975 189.44 235.975ZM187.018 232.069C186.542 232.069 186.159 232.218 185.87 232.517C185.59 232.816 185.422 233.245 185.366 233.805H188.53C188.511 233.236 188.371 232.806 188.11 232.517C187.848 232.218 187.484 232.069 187.018 232.069ZM195.435 230.837C196.257 230.837 196.868 231.07 197.269 231.537C197.671 232.004 197.871 232.708 197.871 233.651V237.095C197.871 237.356 197.792 237.562 197.633 237.711C197.484 237.86 197.274 237.935 197.003 237.935C196.733 237.935 196.518 237.86 196.359 237.711C196.201 237.562 196.121 237.356 196.121 237.095V233.749C196.121 233.217 196.019 232.83 195.813 232.587C195.617 232.344 195.305 232.223 194.875 232.223C194.371 232.223 193.965 232.382 193.657 232.699C193.359 233.016 193.209 233.441 193.209 233.973V237.095C193.209 237.356 193.13 237.562 192.971 237.711C192.813 237.86 192.598 237.935 192.327 237.935C192.057 237.935 191.842 237.86 191.683 237.711C191.534 237.562 191.459 237.356 191.459 237.095V231.677C191.459 231.434 191.539 231.238 191.697 231.089C191.856 230.94 192.071 230.865 192.341 230.865C192.584 230.865 192.78 230.94 192.929 231.089C193.088 231.229 193.167 231.416 193.167 231.649V232.027C193.401 231.644 193.713 231.35 194.105 231.145C194.497 230.94 194.941 230.837 195.435 230.837ZM203.205 236.633C203.671 236.661 203.905 236.871 203.905 237.263C203.905 237.487 203.811 237.66 203.625 237.781C203.447 237.893 203.191 237.94 202.855 237.921L202.477 237.893C200.909 237.781 200.125 236.941 200.125 235.373V232.321H199.425C199.173 232.321 198.977 232.265 198.837 232.153C198.706 232.041 198.641 231.878 198.641 231.663C198.641 231.448 198.706 231.285 198.837 231.173C198.977 231.061 199.173 231.005 199.425 231.005H200.125V229.717C200.125 229.465 200.204 229.264 200.363 229.115C200.521 228.966 200.736 228.891 201.007 228.891C201.268 228.891 201.478 228.966 201.637 229.115C201.795 229.264 201.875 229.465 201.875 229.717V231.005H203.065C203.317 231.005 203.508 231.061 203.639 231.173C203.779 231.285 203.849 231.448 203.849 231.663C203.849 231.878 203.779 232.041 203.639 232.153C203.508 232.265 203.317 232.321 203.065 232.321H201.875V235.499C201.875 236.19 202.192 236.558 202.827 236.605L203.205 236.633ZM211.74 237.963C211.04 237.963 210.424 237.818 209.892 237.529C209.369 237.24 208.963 236.824 208.674 236.283C208.384 235.742 208.24 235.112 208.24 234.393C208.24 233.674 208.384 233.049 208.674 232.517C208.963 231.976 209.369 231.56 209.892 231.271C210.424 230.982 211.04 230.837 211.74 230.837C212.44 230.837 213.051 230.982 213.574 231.271C214.106 231.56 214.512 231.976 214.792 232.517C215.081 233.049 215.226 233.674 215.226 234.393C215.226 235.112 215.081 235.742 214.792 236.283C214.512 236.824 214.106 237.24 213.574 237.529C213.051 237.818 212.44 237.963 211.74 237.963ZM211.726 236.605C212.295 236.605 212.729 236.418 213.028 236.045C213.326 235.672 213.476 235.121 213.476 234.393C213.476 233.674 213.326 233.128 213.028 232.755C212.729 232.372 212.3 232.181 211.74 232.181C211.18 232.181 210.746 232.372 210.438 232.755C210.139 233.128 209.99 233.674 209.99 234.393C209.99 235.121 210.139 235.672 210.438 236.045C210.736 236.418 211.166 236.605 211.726 236.605ZM220.087 229.283C219.658 229.311 219.345 229.442 219.149 229.675C218.953 229.908 218.855 230.244 218.855 230.683V231.005H220.045C220.568 231.005 220.829 231.224 220.829 231.663C220.829 232.102 220.568 232.321 220.045 232.321H218.855V237.095C218.855 237.366 218.771 237.571 218.603 237.711C218.445 237.851 218.239 237.921 217.987 237.921C217.735 237.921 217.525 237.851 217.357 237.711C217.189 237.571 217.105 237.366 217.105 237.095V232.321H216.405C215.883 232.321 215.621 232.102 215.621 231.663C215.621 231.224 215.883 231.005 216.405 231.005H217.105V230.907C217.105 230.03 217.334 229.344 217.791 228.849C218.258 228.345 218.911 228.06 219.751 227.995L220.115 227.967C220.489 227.939 220.75 227.981 220.899 228.093C221.058 228.196 221.137 228.359 221.137 228.583C221.137 228.984 220.909 229.208 220.451 229.255L220.087 229.283ZM229.004 236.633C229.47 236.661 229.704 236.871 229.704 237.263C229.704 237.487 229.61 237.66 229.424 237.781C229.246 237.893 228.99 237.94 228.654 237.921L228.276 237.893C226.708 237.781 225.924 236.941 225.924 235.373V232.321H225.224C224.972 232.321 224.776 232.265 224.636 232.153C224.505 232.041 224.44 231.878 224.44 231.663C224.44 231.448 224.505 231.285 224.636 231.173C224.776 231.061 224.972 231.005 225.224 231.005H225.924V229.717C225.924 229.465 226.003 229.264 226.162 229.115C226.32 228.966 226.535 228.891 226.806 228.891C227.067 228.891 227.277 228.966 227.436 229.115C227.594 229.264 227.674 229.465 227.674 229.717V231.005H228.864C229.116 231.005 229.307 231.061 229.438 231.173C229.578 231.285 229.648 231.448 229.648 231.663C229.648 231.878 229.578 232.041 229.438 232.153C229.307 232.265 229.116 232.321 228.864 232.321H227.674V235.499C227.674 236.19 227.991 236.558 228.626 236.605L229.004 236.633ZM234.62 230.837C236.225 230.837 237.028 231.775 237.028 233.651V237.095C237.028 237.356 236.948 237.562 236.79 237.711C236.64 237.86 236.43 237.935 236.16 237.935C235.889 237.935 235.674 237.86 235.516 237.711C235.357 237.562 235.278 237.356 235.278 237.095V233.651C235.278 233.156 235.175 232.797 234.97 232.573C234.774 232.34 234.461 232.223 234.032 232.223C233.528 232.223 233.122 232.382 232.814 232.699C232.515 233.016 232.366 233.441 232.366 233.973V237.095C232.366 237.356 232.286 237.562 232.128 237.711C231.969 237.86 231.754 237.935 231.484 237.935C231.213 237.935 230.998 237.86 230.84 237.711C230.69 237.562 230.616 237.356 230.616 237.095V228.723C230.616 228.48 230.695 228.284 230.854 228.135C231.022 227.986 231.236 227.911 231.498 227.911C231.759 227.911 231.969 227.981 232.128 228.121C232.286 228.261 232.366 228.452 232.366 228.695V231.957C232.599 231.593 232.907 231.318 233.29 231.131C233.682 230.935 234.125 230.837 234.62 230.837ZM244.223 235.975C244.382 235.975 244.508 236.036 244.601 236.157C244.704 236.278 244.755 236.442 244.755 236.647C244.755 236.936 244.582 237.179 244.237 237.375C243.92 237.552 243.56 237.697 243.159 237.809C242.758 237.912 242.375 237.963 242.011 237.963C240.91 237.963 240.037 237.646 239.393 237.011C238.749 236.376 238.427 235.508 238.427 234.407C238.427 233.707 238.567 233.086 238.847 232.545C239.127 232.004 239.519 231.584 240.023 231.285C240.536 230.986 241.115 230.837 241.759 230.837C242.375 230.837 242.912 230.972 243.369 231.243C243.826 231.514 244.181 231.896 244.433 232.391C244.685 232.886 244.811 233.469 244.811 234.141C244.811 234.542 244.634 234.743 244.279 234.743H240.149C240.205 235.387 240.387 235.863 240.695 236.171C241.003 236.47 241.451 236.619 242.039 236.619C242.338 236.619 242.599 236.582 242.823 236.507C243.056 236.432 243.318 236.33 243.607 236.199C243.887 236.05 244.092 235.975 244.223 235.975ZM241.801 232.069C241.325 232.069 240.942 232.218 240.653 232.517C240.373 232.816 240.205 233.245 240.149 233.805H243.313C243.294 233.236 243.154 232.806 242.893 232.517C242.632 232.218 242.268 232.069 241.801 232.069ZM255.755 227.911C256.017 227.911 256.231 227.986 256.399 228.135C256.567 228.284 256.651 228.48 256.651 228.723V237.095C256.651 237.347 256.572 237.548 256.413 237.697C256.255 237.846 256.045 237.921 255.783 237.921C255.522 237.921 255.312 237.846 255.153 237.697C254.995 237.548 254.915 237.347 254.915 237.095V236.745C254.71 237.128 254.411 237.426 254.019 237.641C253.637 237.856 253.198 237.963 252.703 237.963C252.115 237.963 251.588 237.814 251.121 237.515C250.664 237.216 250.305 236.796 250.043 236.255C249.791 235.704 249.665 235.074 249.665 234.365C249.665 233.656 249.791 233.035 250.043 232.503C250.305 231.971 250.664 231.56 251.121 231.271C251.579 230.982 252.106 230.837 252.703 230.837C253.198 230.837 253.637 230.94 254.019 231.145C254.402 231.35 254.696 231.64 254.901 232.013V228.695C254.901 228.462 254.976 228.275 255.125 228.135C255.284 227.986 255.494 227.911 255.755 227.911ZM253.165 236.605C253.725 236.605 254.155 236.414 254.453 236.031C254.761 235.648 254.915 235.102 254.915 234.393C254.915 233.684 254.761 233.142 254.453 232.769C254.155 232.386 253.73 232.195 253.179 232.195C252.619 232.195 252.185 232.382 251.877 232.755C251.569 233.128 251.415 233.665 251.415 234.365C251.415 235.074 251.569 235.625 251.877 236.017C252.185 236.409 252.615 236.605 253.165 236.605ZM261.574 237.963C260.874 237.963 260.258 237.818 259.726 237.529C259.203 237.24 258.797 236.824 258.508 236.283C258.218 235.742 258.074 235.112 258.074 234.393C258.074 233.674 258.218 233.049 258.508 232.517C258.797 231.976 259.203 231.56 259.726 231.271C260.258 230.982 260.874 230.837 261.574 230.837C262.274 230.837 262.885 230.982 263.408 231.271C263.94 231.56 264.346 231.976 264.626 232.517C264.915 233.049 265.06 233.674 265.06 234.393C265.06 235.112 264.915 235.742 264.626 236.283C264.346 236.824 263.94 237.24 263.408 237.529C262.885 237.818 262.274 237.963 261.574 237.963ZM261.56 236.605C262.129 236.605 262.563 236.418 262.862 236.045C263.16 235.672 263.31 235.121 263.31 234.393C263.31 233.674 263.16 233.128 262.862 232.755C262.563 232.372 262.134 232.181 261.574 232.181C261.014 232.181 260.58 232.372 260.272 232.755C259.973 233.128 259.824 233.674 259.824 234.393C259.824 235.121 259.973 235.672 260.272 236.045C260.57 236.418 261 236.605 261.56 236.605ZM272.3 230.865C272.562 230.865 272.772 230.94 272.93 231.089C273.089 231.238 273.168 231.439 273.168 231.691V237.221C273.168 238.294 272.87 239.106 272.272 239.657C271.675 240.208 270.793 240.483 269.626 240.483C268.609 240.483 267.76 240.292 267.078 239.909C266.733 239.704 266.56 239.456 266.56 239.167C266.56 238.962 266.607 238.798 266.7 238.677C266.803 238.556 266.934 238.495 267.092 238.495C267.176 238.495 267.279 238.514 267.4 238.551C267.522 238.598 267.648 238.649 267.778 238.705C268.114 238.845 268.413 238.952 268.674 239.027C268.945 239.102 269.253 239.139 269.598 239.139C270.821 239.139 271.432 238.542 271.432 237.347V236.451C271.227 236.834 270.928 237.132 270.536 237.347C270.144 237.552 269.696 237.655 269.192 237.655C268.595 237.655 268.063 237.515 267.596 237.235C267.139 236.946 266.78 236.544 266.518 236.031C266.257 235.518 266.126 234.925 266.126 234.253C266.126 233.581 266.252 232.988 266.504 232.475C266.766 231.952 267.13 231.551 267.596 231.271C268.063 230.982 268.595 230.837 269.192 230.837C269.696 230.837 270.144 230.944 270.536 231.159C270.928 231.364 271.227 231.658 271.432 232.041V231.677C271.432 231.434 271.512 231.238 271.67 231.089C271.829 230.94 272.039 230.865 272.3 230.865ZM269.654 236.297C270.214 236.297 270.648 236.115 270.956 235.751C271.274 235.387 271.432 234.888 271.432 234.253C271.432 233.609 271.274 233.105 270.956 232.741C270.648 232.377 270.214 232.195 269.654 232.195C269.104 232.195 268.67 232.377 268.352 232.741C268.035 233.105 267.876 233.609 267.876 234.253C267.876 234.888 268.035 235.387 268.352 235.751C268.67 236.115 269.104 236.297 269.654 236.297ZM279.65 237.935C279.398 237.935 279.188 237.865 279.02 237.725C278.861 237.576 278.782 237.366 278.782 237.095V231.691C278.782 231.42 278.861 231.215 279.02 231.075C279.188 230.935 279.398 230.865 279.65 230.865C279.902 230.865 280.112 230.935 280.28 231.075C280.448 231.215 280.532 231.42 280.532 231.691V237.095C280.532 237.366 280.448 237.576 280.28 237.725C280.112 237.865 279.902 237.935 279.65 237.935ZM279.65 229.619C279.332 229.619 279.08 229.535 278.894 229.367C278.707 229.19 278.614 228.961 278.614 228.681C278.614 228.401 278.707 228.177 278.894 228.009C279.08 227.841 279.332 227.757 279.65 227.757C279.958 227.757 280.205 227.841 280.392 228.009C280.588 228.177 280.686 228.401 280.686 228.681C280.686 228.961 280.592 229.19 280.406 229.367C280.219 229.535 279.967 229.619 279.65 229.619ZM286.312 230.837C287.134 230.837 287.745 231.07 288.146 231.537C288.548 232.004 288.748 232.708 288.748 233.651V237.095C288.748 237.356 288.669 237.562 288.51 237.711C288.361 237.86 288.151 237.935 287.88 237.935C287.61 237.935 287.395 237.86 287.236 237.711C287.078 237.562 286.998 237.356 286.998 237.095V233.749C286.998 233.217 286.896 232.83 286.69 232.587C286.494 232.344 286.182 232.223 285.752 232.223C285.248 232.223 284.842 232.382 284.534 232.699C284.236 233.016 284.086 233.441 284.086 233.973V237.095C284.086 237.356 284.007 237.562 283.848 237.711C283.69 237.86 283.475 237.935 283.204 237.935C282.934 237.935 282.719 237.86 282.56 237.711C282.411 237.562 282.336 237.356 282.336 237.095V231.677C282.336 231.434 282.416 231.238 282.574 231.089C282.733 230.94 282.948 230.865 283.218 230.865C283.461 230.865 283.657 230.94 283.806 231.089C283.965 231.229 284.044 231.416 284.044 231.649V232.027C284.278 231.644 284.59 231.35 284.982 231.145C285.374 230.94 285.818 230.837 286.312 230.837ZM297.883 236.633C298.349 236.661 298.583 236.871 298.583 237.263C298.583 237.487 298.489 237.66 298.303 237.781C298.125 237.893 297.869 237.94 297.533 237.921L297.155 237.893C295.587 237.781 294.803 236.941 294.803 235.373V232.321H294.103C293.851 232.321 293.655 232.265 293.515 232.153C293.384 232.041 293.319 231.878 293.319 231.663C293.319 231.448 293.384 231.285 293.515 231.173C293.655 231.061 293.851 231.005 294.103 231.005H294.803V229.717C294.803 229.465 294.882 229.264 295.041 229.115C295.199 228.966 295.414 228.891 295.685 228.891C295.946 228.891 296.156 228.966 296.315 229.115C296.473 229.264 296.553 229.465 296.553 229.717V231.005H297.743C297.995 231.005 298.186 231.061 298.317 231.173C298.457 231.285 298.527 231.448 298.527 231.663C298.527 231.878 298.457 232.041 298.317 232.153C298.186 232.265 297.995 232.321 297.743 232.321H296.553V235.499C296.553 236.19 296.87 236.558 297.505 236.605L297.883 236.633ZM303.498 230.837C305.104 230.837 305.906 231.775 305.906 233.651V237.095C305.906 237.356 305.827 237.562 305.668 237.711C305.519 237.86 305.309 237.935 305.038 237.935C304.768 237.935 304.553 237.86 304.394 237.711C304.236 237.562 304.156 237.356 304.156 237.095V233.651C304.156 233.156 304.054 232.797 303.848 232.573C303.652 232.34 303.34 232.223 302.91 232.223C302.406 232.223 302 232.382 301.692 232.699C301.394 233.016 301.244 233.441 301.244 233.973V237.095C301.244 237.356 301.165 237.562 301.006 237.711C300.848 237.86 300.633 237.935 300.362 237.935C300.092 237.935 299.877 237.86 299.718 237.711C299.569 237.562 299.494 237.356 299.494 237.095V228.723C299.494 228.48 299.574 228.284 299.732 228.135C299.9 227.986 300.115 227.911 300.376 227.911C300.638 227.911 300.848 227.981 301.006 228.121C301.165 228.261 301.244 228.452 301.244 228.695V231.957C301.478 231.593 301.786 231.318 302.168 231.131C302.56 230.935 303.004 230.837 303.498 230.837ZM313.102 235.975C313.261 235.975 313.387 236.036 313.48 236.157C313.583 236.278 313.634 236.442 313.634 236.647C313.634 236.936 313.461 237.179 313.116 237.375C312.799 237.552 312.439 237.697 312.038 237.809C311.637 237.912 311.254 237.963 310.89 237.963C309.789 237.963 308.916 237.646 308.272 237.011C307.628 236.376 307.306 235.508 307.306 234.407C307.306 233.707 307.446 233.086 307.726 232.545C308.006 232.004 308.398 231.584 308.902 231.285C309.415 230.986 309.994 230.837 310.638 230.837C311.254 230.837 311.791 230.972 312.248 231.243C312.705 231.514 313.06 231.896 313.312 232.391C313.564 232.886 313.69 233.469 313.69 234.141C313.69 234.542 313.513 234.743 313.158 234.743H309.028C309.084 235.387 309.266 235.863 309.574 236.171C309.882 236.47 310.33 236.619 310.918 236.619C311.217 236.619 311.478 236.582 311.702 236.507C311.935 236.432 312.197 236.33 312.486 236.199C312.766 236.05 312.971 235.975 313.102 235.975ZM310.68 232.069C310.204 232.069 309.821 232.218 309.532 232.517C309.252 232.816 309.084 233.245 309.028 233.805H312.192C312.173 233.236 312.033 232.806 311.772 232.517C311.511 232.218 311.147 232.069 310.68 232.069ZM322.898 230.837C323.72 230.837 324.331 231.07 324.732 231.537C325.134 232.004 325.334 232.708 325.334 233.651V237.095C325.334 237.356 325.255 237.562 325.096 237.711C324.947 237.86 324.737 237.935 324.466 237.935C324.196 237.935 323.981 237.86 323.822 237.711C323.664 237.562 323.584 237.356 323.584 237.095V233.749C323.584 233.217 323.482 232.83 323.276 232.587C323.08 232.344 322.768 232.223 322.338 232.223C321.834 232.223 321.428 232.382 321.12 232.699C320.822 233.016 320.672 233.441 320.672 233.973V237.095C320.672 237.356 320.593 237.562 320.434 237.711C320.276 237.86 320.061 237.935 319.79 237.935C319.52 237.935 319.305 237.86 319.146 237.711C318.997 237.562 318.922 237.356 318.922 237.095V231.677C318.922 231.434 319.002 231.238 319.16 231.089C319.319 230.94 319.534 230.865 319.804 230.865C320.047 230.865 320.243 230.94 320.392 231.089C320.551 231.229 320.63 231.416 320.63 231.649V232.027C320.864 231.644 321.176 231.35 321.568 231.145C321.96 230.94 322.404 230.837 322.898 230.837ZM327.98 237.935C327.728 237.935 327.518 237.865 327.35 237.725C327.191 237.576 327.112 237.366 327.112 237.095V231.691C327.112 231.42 327.191 231.215 327.35 231.075C327.518 230.935 327.728 230.865 327.98 230.865C328.232 230.865 328.442 230.935 328.61 231.075C328.778 231.215 328.862 231.42 328.862 231.691V237.095C328.862 237.366 328.778 237.576 328.61 237.725C328.442 237.865 328.232 237.935 327.98 237.935ZM327.98 229.619C327.662 229.619 327.41 229.535 327.224 229.367C327.037 229.19 326.944 228.961 326.944 228.681C326.944 228.401 327.037 228.177 327.224 228.009C327.41 227.841 327.662 227.757 327.98 227.757C328.288 227.757 328.535 227.841 328.722 228.009C328.918 228.177 329.016 228.401 329.016 228.681C329.016 228.961 328.922 229.19 328.736 229.367C328.549 229.535 328.297 229.619 327.98 229.619ZM336.462 230.865C336.724 230.865 336.934 230.94 337.092 231.089C337.251 231.238 337.33 231.439 337.33 231.691V237.221C337.33 238.294 337.032 239.106 336.434 239.657C335.837 240.208 334.955 240.483 333.788 240.483C332.771 240.483 331.922 240.292 331.24 239.909C330.895 239.704 330.722 239.456 330.722 239.167C330.722 238.962 330.769 238.798 330.862 238.677C330.965 238.556 331.096 238.495 331.254 238.495C331.338 238.495 331.441 238.514 331.562 238.551C331.684 238.598 331.81 238.649 331.94 238.705C332.276 238.845 332.575 238.952 332.836 239.027C333.107 239.102 333.415 239.139 333.76 239.139C334.983 239.139 335.594 238.542 335.594 237.347V236.451C335.389 236.834 335.09 237.132 334.698 237.347C334.306 237.552 333.858 237.655 333.354 237.655C332.757 237.655 332.225 237.515 331.758 237.235C331.301 236.946 330.942 236.544 330.68 236.031C330.419 235.518 330.288 234.925 330.288 234.253C330.288 233.581 330.414 232.988 330.666 232.475C330.928 231.952 331.292 231.551 331.758 231.271C332.225 230.982 332.757 230.837 333.354 230.837C333.858 230.837 334.306 230.944 334.698 231.159C335.09 231.364 335.389 231.658 335.594 232.041V231.677C335.594 231.434 335.674 231.238 335.832 231.089C335.991 230.94 336.201 230.865 336.462 230.865ZM333.816 236.297C334.376 236.297 334.81 236.115 335.118 235.751C335.436 235.387 335.594 234.888 335.594 234.253C335.594 233.609 335.436 233.105 335.118 232.741C334.81 232.377 334.376 232.195 333.816 232.195C333.266 232.195 332.832 232.377 332.514 232.741C332.197 233.105 332.038 233.609 332.038 234.253C332.038 234.888 332.197 235.387 332.514 235.751C332.832 236.115 333.266 236.297 333.816 236.297ZM343.147 230.837C344.752 230.837 345.555 231.775 345.555 233.651V237.095C345.555 237.356 345.476 237.562 345.317 237.711C345.168 237.86 344.958 237.935 344.687 237.935C344.416 237.935 344.202 237.86 344.043 237.711C343.884 237.562 343.805 237.356 343.805 237.095V233.651C343.805 233.156 343.702 232.797 343.497 232.573C343.301 232.34 342.988 232.223 342.559 232.223C342.055 232.223 341.649 232.382 341.341 232.699C341.042 233.016 340.893 233.441 340.893 233.973V237.095C340.893 237.356 340.814 237.562 340.655 237.711C340.496 237.86 340.282 237.935 340.011 237.935C339.74 237.935 339.526 237.86 339.367 237.711C339.218 237.562 339.143 237.356 339.143 237.095V228.723C339.143 228.48 339.222 228.284 339.381 228.135C339.549 227.986 339.764 227.911 340.025 227.911C340.286 227.911 340.496 227.981 340.655 228.121C340.814 228.261 340.893 228.452 340.893 228.695V231.957C341.126 231.593 341.434 231.318 341.817 231.131C342.209 230.935 342.652 230.837 343.147 230.837ZM350.888 236.633C351.355 236.661 351.588 236.871 351.588 237.263C351.588 237.487 351.495 237.66 351.308 237.781C351.131 237.893 350.874 237.94 350.538 237.921L350.16 237.893C348.592 237.781 347.808 236.941 347.808 235.373V232.321H347.108C346.856 232.321 346.66 232.265 346.52 232.153C346.39 232.041 346.324 231.878 346.324 231.663C346.324 231.448 346.39 231.285 346.52 231.173C346.66 231.061 346.856 231.005 347.108 231.005H347.808V229.717C347.808 229.465 347.888 229.264 348.046 229.115C348.205 228.966 348.42 228.891 348.69 228.891C348.952 228.891 349.162 228.966 349.32 229.115C349.479 229.264 349.558 229.465 349.558 229.717V231.005H350.748C351 231.005 351.192 231.061 351.322 231.173C351.462 231.285 351.532 231.448 351.532 231.663C351.532 231.878 351.462 232.041 351.322 232.153C351.192 232.265 351 232.321 350.748 232.321H349.558V235.499C349.558 236.19 349.876 236.558 350.51 236.605L350.888 236.633ZM353.022 234.799C352.752 234.799 352.546 234.738 352.406 234.617C352.276 234.496 352.21 234.328 352.21 234.113C352.21 233.898 352.276 233.73 352.406 233.609C352.546 233.478 352.752 233.413 353.022 233.413H355.906C356.177 233.413 356.378 233.478 356.508 233.609C356.648 233.73 356.718 233.898 356.718 234.113C356.718 234.328 356.648 234.496 356.508 234.617C356.378 234.738 356.177 234.799 355.906 234.799H353.022ZM361.963 236.633C362.429 236.661 362.663 236.871 362.663 237.263C362.663 237.487 362.569 237.66 362.383 237.781C362.205 237.893 361.949 237.94 361.613 237.921L361.235 237.893C359.667 237.781 358.883 236.941 358.883 235.373V232.321H358.183C357.931 232.321 357.735 232.265 357.595 232.153C357.464 232.041 357.399 231.878 357.399 231.663C357.399 231.448 357.464 231.285 357.595 231.173C357.735 231.061 357.931 231.005 358.183 231.005H358.883V229.717C358.883 229.465 358.962 229.264 359.121 229.115C359.279 228.966 359.494 228.891 359.765 228.891C360.026 228.891 360.236 228.966 360.395 229.115C360.553 229.264 360.633 229.465 360.633 229.717V231.005H361.823C362.075 231.005 362.266 231.061 362.397 231.173C362.537 231.285 362.607 231.448 362.607 231.663C362.607 231.878 362.537 232.041 362.397 232.153C362.266 232.265 362.075 232.321 361.823 232.321H360.633V235.499C360.633 236.19 360.95 236.558 361.585 236.605L361.963 236.633ZM364.443 237.935C364.191 237.935 363.981 237.865 363.813 237.725C363.654 237.576 363.575 237.366 363.575 237.095V231.691C363.575 231.42 363.654 231.215 363.813 231.075C363.981 230.935 364.191 230.865 364.443 230.865C364.695 230.865 364.905 230.935 365.073 231.075C365.241 231.215 365.325 231.42 365.325 231.691V237.095C365.325 237.366 365.241 237.576 365.073 237.725C364.905 237.865 364.695 237.935 364.443 237.935ZM364.443 229.619C364.125 229.619 363.873 229.535 363.687 229.367C363.5 229.19 363.407 228.961 363.407 228.681C363.407 228.401 363.5 228.177 363.687 228.009C363.873 227.841 364.125 227.757 364.443 227.757C364.751 227.757 364.998 227.841 365.185 228.009C365.381 228.177 365.479 228.401 365.479 228.681C365.479 228.961 365.385 229.19 365.199 229.367C365.012 229.535 364.76 229.619 364.443 229.619ZM375.263 230.837C376.01 230.837 376.579 231.061 376.971 231.509C377.373 231.948 377.573 232.662 377.573 233.651V237.095C377.573 237.366 377.489 237.576 377.321 237.725C377.163 237.865 376.953 237.935 376.691 237.935C376.439 237.935 376.229 237.865 376.061 237.725C375.903 237.576 375.823 237.366 375.823 237.095V233.651C375.823 233.138 375.73 232.774 375.543 232.559C375.366 232.335 375.091 232.223 374.717 232.223C374.26 232.223 373.896 232.382 373.625 232.699C373.355 233.007 373.219 233.432 373.219 233.973V237.095C373.219 237.366 373.135 237.576 372.967 237.725C372.809 237.865 372.603 237.935 372.351 237.935C372.099 237.935 371.889 237.865 371.721 237.725C371.553 237.576 371.469 237.366 371.469 237.095V233.651C371.469 233.138 371.376 232.774 371.189 232.559C371.012 232.335 370.737 232.223 370.363 232.223C369.906 232.223 369.542 232.382 369.271 232.699C369.01 233.007 368.879 233.432 368.879 233.973V237.095C368.879 237.366 368.795 237.576 368.627 237.725C368.459 237.865 368.249 237.935 367.997 237.935C367.745 237.935 367.535 237.865 367.367 237.725C367.209 237.576 367.129 237.366 367.129 237.095V231.677C367.129 231.416 367.213 231.215 367.381 231.075C367.549 230.935 367.759 230.865 368.011 230.865C368.254 230.865 368.45 230.935 368.599 231.075C368.758 231.206 368.837 231.397 368.837 231.649V231.985C369.052 231.612 369.337 231.327 369.691 231.131C370.055 230.935 370.471 230.837 370.937 230.837C371.964 230.837 372.65 231.266 372.995 232.125C373.201 231.733 373.504 231.42 373.905 231.187C374.307 230.954 374.759 230.837 375.263 230.837ZM384.77 235.975C384.929 235.975 385.055 236.036 385.148 236.157C385.251 236.278 385.302 236.442 385.302 236.647C385.302 236.936 385.129 237.179 384.784 237.375C384.467 237.552 384.107 237.697 383.706 237.809C383.305 237.912 382.922 237.963 382.558 237.963C381.457 237.963 380.584 237.646 379.94 237.011C379.296 236.376 378.974 235.508 378.974 234.407C378.974 233.707 379.114 233.086 379.394 232.545C379.674 232.004 380.066 231.584 380.57 231.285C381.083 230.986 381.662 230.837 382.306 230.837C382.922 230.837 383.459 230.972 383.916 231.243C384.373 231.514 384.728 231.896 384.98 232.391C385.232 232.886 385.358 233.469 385.358 234.141C385.358 234.542 385.181 234.743 384.826 234.743H380.696C380.752 235.387 380.934 235.863 381.242 236.171C381.55 236.47 381.998 236.619 382.586 236.619C382.885 236.619 383.146 236.582 383.37 236.507C383.603 236.432 383.865 236.33 384.154 236.199C384.434 236.05 384.639 235.975 384.77 235.975ZM382.348 232.069C381.872 232.069 381.489 232.218 381.2 232.517C380.92 232.816 380.752 233.245 380.696 233.805H383.86C383.841 233.236 383.701 232.806 383.44 232.517C383.179 232.218 382.815 232.069 382.348 232.069Z" fill="#DFDFDF"/>
<path d="M73.8131 210.851V210.215H74.3171C74.4931 210.215 74.6371 210.171 74.7491 210.083C74.8691 209.995 74.9291 209.779 74.9291 209.435V203.699C74.9291 203.355 74.8691 203.139 74.7491 203.051C74.6371 202.963 74.4931 202.919 74.3171 202.919H73.8131V202.283H77.9531V202.919H77.4491C77.2811 202.919 77.1371 202.963 77.0171 203.051C76.8971 203.131 76.8371 203.331 76.8371 203.651V210.119H79.0691C79.3491 210.119 79.5651 210.031 79.7171 209.855C79.8771 209.671 79.9931 209.411 80.0651 209.075L80.2571 208.175H80.9291L80.8451 210.851H73.8131ZM83.3806 203.339C83.0926 203.339 82.8486 203.271 82.6486 203.135C82.4566 202.991 82.3606 202.771 82.3606 202.475C82.3606 202.171 82.4566 201.951 82.6486 201.815C82.8486 201.679 83.0926 201.611 83.3806 201.611C83.6606 201.611 83.9006 201.679 84.1006 201.815C84.3086 201.951 84.4126 202.171 84.4126 202.475C84.4126 202.771 84.3086 202.991 84.1006 203.135C83.9006 203.271 83.6606 203.339 83.3806 203.339ZM81.5326 210.851V210.215H81.6766C81.7966 210.215 81.9206 210.199 82.0486 210.167C82.1846 210.127 82.2966 210.051 82.3846 209.939C82.4806 209.827 82.5286 209.659 82.5286 209.435V205.787C82.5286 205.571 82.4806 205.411 82.3846 205.307C82.2886 205.203 82.1726 205.135 82.0366 205.103C81.9086 205.071 81.7886 205.055 81.6766 205.055H81.5326V204.419H84.3526V209.435C84.3526 209.659 84.3966 209.827 84.4846 209.939C84.5806 210.051 84.6966 210.127 84.8326 210.167C84.9686 210.199 85.0926 210.215 85.2046 210.215H85.3486V210.851H81.5326ZM85.7754 210.851V210.215H86.0394C86.1594 210.215 86.2834 210.199 86.4114 210.167C86.5474 210.127 86.6594 210.051 86.7474 209.939C86.8434 209.827 86.8914 209.659 86.8914 209.435V205.235H85.8234V204.419H86.8914V203.975C86.8914 203.231 87.0874 202.655 87.4794 202.247C87.8714 201.831 88.4914 201.623 89.3394 201.623C89.8594 201.623 90.2634 201.663 90.5514 201.743C90.8394 201.815 91.0434 201.919 91.1634 202.055C91.2834 202.183 91.3434 202.331 91.3434 202.499C91.3434 203.019 90.8514 203.279 89.8674 203.279C89.8674 203.151 89.8474 203.011 89.8074 202.859C89.7674 202.707 89.7034 202.579 89.6154 202.475C89.5354 202.363 89.4194 202.307 89.2674 202.307C89.0674 202.307 88.9234 202.419 88.8354 202.643C88.7554 202.859 88.7154 203.231 88.7154 203.759V204.419H90.3714V205.235H88.7154V209.435C88.7154 209.659 88.7594 209.827 88.8474 209.939C88.9434 210.051 89.0594 210.127 89.1954 210.167C89.3314 210.199 89.4554 210.215 89.5674 210.215H90.1314V210.851H85.7754ZM94.1061 210.971C93.0901 210.971 92.3181 210.683 91.7901 210.107C91.2621 209.523 90.9981 208.711 90.9981 207.671C90.9981 206.543 91.2581 205.695 91.7781 205.127C92.2981 204.551 93.0301 204.263 93.9741 204.263C94.8461 204.263 95.5301 204.507 96.0261 204.995C96.5301 205.483 96.7821 206.203 96.7821 207.155V207.767H92.8461C92.8701 208.567 93.0181 209.151 93.2901 209.519C93.5701 209.887 93.9581 210.071 94.4541 210.071C94.8701 210.071 95.2221 209.979 95.5101 209.795C95.7981 209.603 96.0101 209.371 96.1461 209.099C96.3621 209.219 96.4701 209.415 96.4701 209.687C96.4701 210.031 96.2781 210.331 95.8941 210.587C95.5101 210.843 94.9141 210.971 94.1061 210.971ZM92.8701 206.999H94.9461C94.9461 206.383 94.8741 205.903 94.7301 205.559C94.5861 205.215 94.3421 205.043 93.9981 205.043C93.6621 205.043 93.3941 205.211 93.1941 205.547C92.9941 205.875 92.8861 206.359 92.8701 206.999ZM103.227 210.971C102.547 210.971 101.991 210.767 101.559 210.359C101.135 209.943 100.923 209.319 100.923 208.487C100.923 208.039 100.995 207.575 101.139 207.095C101.283 206.607 101.503 206.151 101.799 205.727C102.095 205.303 102.467 204.959 102.915 204.695C103.363 204.431 103.891 204.299 104.499 204.299C104.923 204.299 105.307 204.383 105.651 204.551C105.995 204.719 106.267 204.987 106.467 205.355C106.675 205.715 106.779 206.191 106.779 206.783C106.779 207.127 106.735 207.491 106.647 207.875C106.559 208.251 106.423 208.623 106.239 208.991C106.055 209.359 105.823 209.691 105.543 209.987C105.263 210.283 104.931 210.523 104.547 210.707C104.163 210.883 103.723 210.971 103.227 210.971ZM103.359 210.359C103.751 210.359 104.083 210.235 104.355 209.987C104.635 209.731 104.859 209.407 105.027 209.015C105.203 208.615 105.331 208.199 105.411 207.767C105.491 207.335 105.531 206.939 105.531 206.579C105.531 205.979 105.427 205.551 105.219 205.295C105.011 205.039 104.723 204.911 104.355 204.911C104.043 204.911 103.767 204.995 103.527 205.163C103.287 205.331 103.079 205.555 102.903 205.835C102.735 206.107 102.595 206.411 102.483 206.747C102.379 207.083 102.299 207.423 102.243 207.767C102.195 208.103 102.171 208.415 102.171 208.703C102.171 209.311 102.279 209.739 102.495 209.987C102.711 210.235 102.999 210.359 103.359 210.359ZM106.313 213.731C106.193 213.731 106.069 213.719 105.941 213.695C105.805 213.679 105.697 213.659 105.617 213.635L105.725 213.083C105.789 213.099 105.877 213.115 105.989 213.131C106.093 213.155 106.189 213.167 106.277 213.167C106.669 213.167 106.977 212.999 107.201 212.663C107.417 212.327 107.613 211.759 107.789 210.959L109.049 205.103H107.957L108.029 204.671L109.181 204.419L109.313 203.759C109.449 203.071 109.697 202.543 110.057 202.175C110.425 201.799 110.937 201.611 111.593 201.611C112.105 201.611 112.489 201.695 112.745 201.863C113.009 202.023 113.141 202.235 113.141 202.499C113.141 202.763 113.053 202.959 112.877 203.087C112.709 203.215 112.465 203.279 112.145 203.279C112.145 202.975 112.105 202.715 112.025 202.499C111.953 202.275 111.789 202.163 111.533 202.163C111.237 202.163 111.009 202.287 110.849 202.535C110.689 202.775 110.561 203.147 110.465 203.651L110.309 204.419H111.641L111.509 205.103H110.165L108.917 210.947C108.765 211.659 108.569 212.215 108.329 212.615C108.089 213.023 107.801 213.311 107.465 213.479C107.129 213.647 106.745 213.731 106.313 213.731ZM117.688 210.851V210.215H118.192C118.368 210.215 118.512 210.171 118.624 210.083C118.744 209.995 118.804 209.779 118.804 209.435V203.651C118.804 203.331 118.744 203.131 118.624 203.051C118.504 202.963 118.36 202.919 118.192 202.919H117.688V202.283H121.372C122.484 202.283 123.308 202.511 123.844 202.967C124.38 203.423 124.648 204.043 124.648 204.827C124.648 205.307 124.532 205.755 124.3 206.171C124.076 206.587 123.704 206.927 123.184 207.191C122.664 207.447 121.972 207.575 121.108 207.575H120.7V209.495C120.7 209.815 120.764 210.015 120.892 210.095C121.02 210.175 121.168 210.215 121.336 210.215H122.068V210.851H117.688ZM120.7 206.879H120.988C121.58 206.879 122 206.727 122.248 206.423C122.504 206.111 122.632 205.595 122.632 204.875C122.632 204.235 122.52 203.763 122.296 203.459C122.08 203.147 121.704 202.991 121.168 202.991H120.7V206.879ZM127.056 203.339C126.768 203.339 126.524 203.271 126.324 203.135C126.132 202.991 126.036 202.771 126.036 202.475C126.036 202.171 126.132 201.951 126.324 201.815C126.524 201.679 126.768 201.611 127.056 201.611C127.336 201.611 127.576 201.679 127.776 201.815C127.984 201.951 128.088 202.171 128.088 202.475C128.088 202.771 127.984 202.991 127.776 203.135C127.576 203.271 127.336 203.339 127.056 203.339ZM125.208 210.851V210.215H125.352C125.472 210.215 125.596 210.199 125.724 210.167C125.86 210.127 125.972 210.051 126.06 209.939C126.156 209.827 126.204 209.659 126.204 209.435V205.787C126.204 205.571 126.156 205.411 126.06 205.307C125.964 205.203 125.848 205.135 125.712 205.103C125.584 205.071 125.464 205.055 125.352 205.055H125.208V204.419H128.028V209.435C128.028 209.659 128.072 209.827 128.16 209.939C128.256 210.051 128.372 210.127 128.508 210.167C128.644 210.199 128.768 210.215 128.88 210.215H129.024V210.851H125.208Z" fill="#979797"/>
<path d="M76.1071 178.111C75.8671 178.111 75.6904 178.051 75.5771 177.931C75.4637 177.811 75.4071 177.614 75.4071 177.341C75.4071 176.974 75.4704 176.324 75.5971 175.391C75.7304 174.458 75.9504 173.074 76.2571 171.241L77.4571 171.471L77.2271 172.901C77.0337 174.128 76.8871 175.064 76.7871 175.711C76.6937 176.358 76.6471 176.791 76.6471 177.011C76.6471 177.378 76.7237 177.658 76.8771 177.851C76.6237 178.024 76.3671 178.111 76.1071 178.111ZM78.5071 171.991C78.3137 171.991 78.1137 171.981 77.9071 171.961C77.7071 171.934 77.4837 171.901 77.2371 171.861C77.0171 171.828 76.7871 171.798 76.5471 171.771C76.3137 171.744 76.0937 171.731 75.8871 171.731L74.2771 171.971C74.2104 171.844 74.1771 171.681 74.1771 171.481C74.1771 171.188 74.2604 170.984 74.4271 170.871C74.5937 170.758 74.8437 170.701 75.1771 170.701C75.3637 170.701 75.5704 170.714 75.7971 170.741C76.0304 170.768 76.2537 170.798 76.4671 170.831C76.7471 170.878 76.9871 170.914 77.1871 170.941C77.3871 170.961 77.5904 170.971 77.7971 170.971L79.4071 170.721C79.4671 170.841 79.4971 171.004 79.4971 171.211C79.4971 171.458 79.4104 171.651 79.2371 171.791C79.0637 171.924 78.8204 171.991 78.5071 171.991ZM80.5144 178.101C80.2811 178.101 80.1077 178.041 79.9944 177.921C79.8811 177.801 79.8244 177.624 79.8244 177.391C79.8244 177.158 79.8811 176.721 79.9944 176.081C80.1077 175.434 80.2977 174.421 80.5644 173.041C80.6311 172.708 80.6977 172.374 80.7644 172.041C80.8311 171.701 80.8944 171.364 80.9544 171.031L80.5144 170.531C80.6677 170.398 80.8511 170.294 81.0644 170.221C81.2844 170.141 81.4844 170.101 81.6644 170.101C81.8511 170.101 81.9844 170.144 82.0644 170.231C82.1444 170.311 82.1844 170.451 82.1844 170.651C82.1844 170.778 82.1644 170.944 82.1244 171.151C82.0844 171.351 82.0177 171.638 81.9244 172.011C81.7444 172.738 81.6144 173.301 81.5344 173.701L81.6344 173.751C82.0011 173.091 82.4244 172.611 82.9044 172.311C83.3844 172.004 83.8677 171.851 84.3544 171.851C84.7811 171.851 85.1011 171.961 85.3144 172.181C85.5277 172.394 85.6344 172.728 85.6344 173.181C85.6344 173.448 85.6044 173.724 85.5444 174.011C85.4911 174.298 85.4111 174.658 85.3044 175.091C85.1777 175.598 85.0844 176.014 85.0244 176.341C84.9644 176.661 84.9344 176.981 84.9344 177.301C84.9344 177.554 84.9777 177.728 85.0644 177.821C84.8577 178.008 84.6444 178.101 84.4244 178.101C84.1911 178.101 84.0211 178.041 83.9144 177.921C83.8077 177.801 83.7544 177.624 83.7544 177.391C83.7544 177.138 83.7811 176.854 83.8344 176.541C83.8944 176.221 83.9777 175.808 84.0844 175.301C84.1844 174.881 84.2577 174.531 84.3044 174.251C84.3577 173.964 84.3844 173.718 84.3844 173.511C84.3844 172.971 84.1811 172.701 83.7744 172.701C83.3677 172.701 82.9477 172.901 82.5144 173.301C82.0877 173.701 81.7311 174.254 81.4444 174.961C81.1577 175.661 81.0144 176.441 81.0144 177.301C81.0144 177.548 81.0544 177.721 81.1344 177.821C80.9411 178.008 80.7344 178.101 80.5144 178.101ZM89.4174 178.101C88.7108 178.101 88.1574 177.884 87.7574 177.451C87.3574 177.018 87.1574 176.421 87.1574 175.661C87.1574 174.941 87.3141 174.291 87.6274 173.711C87.9408 173.131 88.3741 172.678 88.9274 172.351C89.4808 172.018 90.0974 171.851 90.7774 171.851C91.3041 171.851 91.7141 171.978 92.0074 172.231C92.3074 172.484 92.4574 172.834 92.4574 173.281C92.4574 173.754 92.2874 174.161 91.9474 174.501C91.6074 174.834 91.1108 175.091 90.4574 175.271C89.8108 175.444 89.0274 175.531 88.1074 175.531L88.2274 174.971C89.2208 174.978 89.9908 174.831 90.5374 174.531C91.0908 174.224 91.3674 173.798 91.3674 173.251C91.3674 173.018 91.2974 172.831 91.1574 172.691C91.0174 172.551 90.8341 172.481 90.6074 172.481C90.2141 172.481 89.8474 172.628 89.5074 172.921C89.1674 173.208 88.8974 173.601 88.6974 174.101C88.4974 174.594 88.3974 175.134 88.3974 175.721C88.3974 176.254 88.4974 176.674 88.6974 176.981C88.8974 177.281 89.1708 177.431 89.5174 177.431C89.9508 177.431 90.3041 177.294 90.5774 177.021C90.8508 176.748 91.0008 176.384 91.0274 175.931C91.2874 175.931 91.4874 175.981 91.6274 176.081C91.7674 176.174 91.8374 176.324 91.8374 176.531C91.8374 176.798 91.7308 177.054 91.5174 177.301C91.3041 177.541 91.0108 177.734 90.6374 177.881C90.2708 178.028 89.8641 178.101 89.4174 178.101ZM99.4835 178.101C98.9169 178.101 98.4202 177.978 97.9935 177.731C97.5735 177.478 97.2469 177.121 97.0135 176.661C96.7802 176.194 96.6635 175.654 96.6635 175.041C96.6635 174.154 96.8369 173.374 97.1835 172.701C97.5302 172.028 97.9935 171.511 98.5735 171.151C99.1535 170.784 99.7869 170.601 100.474 170.601C100.807 170.601 101.054 170.651 101.214 170.751C101.374 170.844 101.454 170.994 101.454 171.201C101.454 171.274 101.447 171.341 101.434 171.401C101.42 171.454 101.4 171.514 101.374 171.581C101.287 171.561 101.187 171.544 101.074 171.531C100.96 171.511 100.864 171.501 100.784 171.501C100.257 171.501 99.7769 171.648 99.3435 171.941C98.9169 172.234 98.5769 172.648 98.3235 173.181C98.0769 173.708 97.9535 174.314 97.9535 175.001C97.9535 175.788 98.1135 176.384 98.4335 176.791C98.7602 177.198 99.2002 177.401 99.7535 177.401C100.12 177.401 100.49 177.281 100.864 177.041C101.244 176.794 101.567 176.451 101.834 176.011C102.107 175.564 102.28 175.058 102.354 174.491C101.954 174.311 101.667 174.084 101.494 173.811C101.327 173.531 101.244 173.218 101.244 172.871C101.244 172.544 101.337 172.274 101.524 172.061C101.71 171.841 101.944 171.731 102.224 171.731C102.564 171.731 102.83 171.884 103.024 172.191C103.217 172.491 103.314 172.908 103.314 173.441C103.314 174.308 103.147 175.098 102.814 175.811C102.487 176.518 102.03 177.078 101.444 177.491C100.864 177.898 100.21 178.101 99.4835 178.101ZM105.185 178.101C104.985 178.101 104.832 178.034 104.725 177.901C104.618 177.774 104.565 177.578 104.565 177.311C104.565 177.051 104.638 176.431 104.785 175.451C104.932 174.464 105.098 173.421 105.285 172.321C105.325 172.088 105.365 171.864 105.405 171.651C105.445 171.431 105.482 171.224 105.515 171.031L105.075 170.531C105.228 170.398 105.412 170.294 105.625 170.221C105.845 170.141 106.045 170.101 106.225 170.101C106.412 170.101 106.545 170.144 106.625 170.231C106.705 170.311 106.745 170.451 106.745 170.651C106.745 170.738 106.718 170.921 106.665 171.201C106.612 171.481 106.548 171.794 106.475 172.141C106.255 173.214 106.075 174.168 105.935 175.001C105.802 175.828 105.735 176.564 105.735 177.211C105.735 177.338 105.752 177.458 105.785 177.571C105.825 177.678 105.875 177.761 105.935 177.821C105.835 177.908 105.722 177.974 105.595 178.021C105.468 178.074 105.332 178.101 105.185 178.101ZM109.885 178.101C109.525 178.101 109.205 178.004 108.925 177.811C108.652 177.618 108.438 177.344 108.285 176.991C108.138 176.631 108.065 176.218 108.065 175.751C108.065 175.078 108.235 174.464 108.575 173.911C108.915 173.351 109.378 172.911 109.965 172.591C110.552 172.264 111.198 172.101 111.905 172.101C112.265 172.101 112.578 172.128 112.845 172.181C112.925 172.308 112.965 172.464 112.965 172.651C112.225 172.651 111.578 172.781 111.025 173.041C110.472 173.301 110.045 173.664 109.745 174.131C109.445 174.591 109.295 175.121 109.295 175.721C109.295 176.174 109.388 176.528 109.575 176.781C109.762 177.034 110.025 177.161 110.365 177.161C110.732 177.161 111.092 176.998 111.445 176.671C111.798 176.344 112.072 175.904 112.265 175.351L112.175 176.711L111.975 176.631C111.735 177.098 111.432 177.461 111.065 177.721C110.705 177.974 110.312 178.101 109.885 178.101ZM112.665 178.101C112.458 178.101 112.302 178.034 112.195 177.901C112.088 177.774 112.035 177.578 112.035 177.311C112.035 177.058 112.105 176.468 112.245 175.541C112.385 174.608 112.555 173.534 112.755 172.321C112.802 172.088 112.842 171.864 112.875 171.651C112.915 171.431 112.952 171.224 112.985 171.031L112.545 170.531C112.705 170.398 112.892 170.294 113.105 170.221C113.318 170.141 113.515 170.101 113.695 170.101C113.882 170.101 114.015 170.144 114.095 170.231C114.175 170.311 114.215 170.451 114.215 170.651C114.215 170.784 114.185 170.991 114.125 171.271C114.072 171.551 114.008 171.858 113.935 172.191C113.715 173.164 113.538 174.044 113.405 174.831C113.272 175.611 113.205 176.404 113.205 177.211C113.205 177.331 113.222 177.448 113.255 177.561C113.295 177.674 113.348 177.761 113.415 177.821C113.308 177.908 113.192 177.974 113.065 178.021C112.945 178.074 112.812 178.101 112.665 178.101ZM119.838 178.111C119.591 178.111 119.411 178.051 119.298 177.931C119.184 177.811 119.128 177.614 119.128 177.341C119.128 176.961 119.178 176.384 119.278 175.611C119.378 174.831 119.578 173.501 119.878 171.621L119.568 171.011C119.781 170.871 119.988 170.768 120.188 170.701C120.394 170.628 120.578 170.591 120.738 170.591C121.131 170.591 121.428 170.714 121.628 170.961C121.828 171.208 122.008 171.648 122.168 172.281C122.334 172.914 122.588 174.081 122.928 175.781C122.941 175.854 122.954 175.928 122.968 176.001C122.988 176.074 123.004 176.148 123.018 176.221H123.128C123.354 175.301 123.698 174.404 124.158 173.531C124.624 172.658 125.141 171.951 125.708 171.411C126.281 170.864 126.834 170.591 127.368 170.591C127.488 170.591 127.581 170.631 127.648 170.711C127.721 170.791 127.758 170.918 127.758 171.091C127.758 171.158 127.728 171.378 127.668 171.751C127.614 172.124 127.551 172.541 127.478 173.001C127.298 174.128 127.161 175.021 127.068 175.681C126.974 176.334 126.928 176.784 126.928 177.031C126.928 177.378 127.008 177.658 127.168 177.871C126.901 178.044 126.644 178.131 126.398 178.131C126.158 178.131 125.981 178.068 125.868 177.941C125.761 177.821 125.708 177.624 125.708 177.351C125.708 176.958 125.754 176.384 125.848 175.631C125.941 174.871 126.121 173.688 126.388 172.081H126.328C125.888 172.461 125.491 172.964 125.138 173.591C124.791 174.218 124.508 174.851 124.288 175.491C124.068 176.131 123.924 176.668 123.858 177.101C123.738 177.208 123.604 177.291 123.458 177.351C123.311 177.411 123.168 177.441 123.028 177.441C122.734 177.441 122.511 177.338 122.358 177.131C122.211 176.924 122.061 176.511 121.908 175.891C121.754 175.264 121.498 174.061 121.138 172.281C121.131 172.248 121.124 172.214 121.118 172.181C121.111 172.148 121.104 172.114 121.098 172.081H121.038C121.024 172.188 121.008 172.298 120.988 172.411C120.968 172.524 120.951 172.638 120.938 172.751C120.744 173.971 120.598 174.921 120.498 175.601C120.404 176.274 120.358 176.744 120.358 177.011C120.358 177.384 120.438 177.664 120.598 177.851C120.344 178.024 120.091 178.111 119.838 178.111ZM130.92 178.101C130.56 178.101 130.24 178.004 129.96 177.811C129.687 177.618 129.474 177.344 129.32 176.991C129.174 176.631 129.1 176.218 129.1 175.751C129.1 175.031 129.27 174.374 129.61 173.781C129.95 173.181 130.414 172.711 131 172.371C131.587 172.024 132.234 171.851 132.94 171.851C133.247 171.851 133.56 171.878 133.88 171.931C133.96 172.071 134 172.228 134 172.401C133.247 172.401 132.594 172.544 132.04 172.831C131.487 173.118 131.064 173.514 130.77 174.021C130.477 174.521 130.33 175.088 130.33 175.721C130.33 176.174 130.424 176.528 130.61 176.781C130.797 177.034 131.06 177.161 131.4 177.161C132.02 177.161 132.53 176.768 132.93 175.981C133.33 175.188 133.63 173.994 133.83 172.401C133.904 172.308 133.997 172.234 134.11 172.181C134.23 172.128 134.35 172.101 134.47 172.101C134.637 172.101 134.767 172.141 134.86 172.221C134.96 172.301 135.01 172.411 135.01 172.551C135.01 172.704 134.987 172.888 134.94 173.101C134.9 173.314 134.83 173.628 134.73 174.041C134.57 174.714 134.447 175.298 134.36 175.791C134.274 176.284 134.23 176.788 134.23 177.301C134.23 177.534 134.29 177.708 134.41 177.821C134.204 178.008 133.98 178.101 133.74 178.101C133.514 178.101 133.34 178.031 133.22 177.891C133.1 177.751 133.04 177.548 133.04 177.281C133.04 177.134 133.064 176.934 133.11 176.681L133.01 176.631C132.77 177.098 132.467 177.461 132.1 177.721C131.74 177.974 131.347 178.101 130.92 178.101ZM137.541 178.101C137.307 178.101 137.134 178.044 137.021 177.931C136.914 177.818 136.861 177.638 136.861 177.391C136.861 177.098 136.947 176.494 137.121 175.581C137.301 174.661 137.504 173.751 137.731 172.851L137.281 172.351C137.441 172.211 137.627 172.098 137.841 172.011C138.061 171.924 138.257 171.881 138.431 171.881C138.631 171.881 138.771 171.921 138.851 172.001C138.931 172.081 138.971 172.224 138.971 172.431C138.971 172.604 138.941 172.801 138.881 173.021C138.827 173.241 138.754 173.444 138.661 173.631L138.761 173.681C139.434 172.461 140.307 171.851 141.381 171.851C141.814 171.851 142.134 171.961 142.341 172.181C142.554 172.394 142.661 172.728 142.661 173.181C142.661 173.448 142.631 173.724 142.571 174.011C142.517 174.298 142.437 174.658 142.331 175.091C142.204 175.598 142.111 176.014 142.051 176.341C141.991 176.661 141.961 176.981 141.961 177.301C141.961 177.541 142.004 177.714 142.091 177.821C141.891 178.008 141.677 178.101 141.451 178.101C141.224 178.101 141.054 178.044 140.941 177.931C140.834 177.818 140.781 177.638 140.781 177.391C140.781 177.138 140.807 176.854 140.861 176.541C140.921 176.221 141.004 175.808 141.111 175.301C141.211 174.881 141.284 174.531 141.331 174.251C141.384 173.964 141.411 173.718 141.411 173.511C141.411 172.971 141.207 172.701 140.801 172.701C140.327 172.701 139.877 172.928 139.451 173.381C139.031 173.828 138.691 174.408 138.431 175.121C138.177 175.834 138.051 176.561 138.051 177.301C138.051 177.548 138.091 177.721 138.171 177.821C137.971 178.008 137.761 178.101 137.541 178.101ZM149.221 178.101C148.861 178.101 148.541 178.004 148.261 177.811C147.988 177.618 147.774 177.344 147.621 176.991C147.474 176.631 147.401 176.218 147.401 175.751C147.401 175.031 147.571 174.374 147.911 173.781C148.251 173.181 148.714 172.711 149.301 172.371C149.888 172.024 150.534 171.851 151.241 171.851C151.548 171.851 151.861 171.878 152.181 171.931C152.261 172.071 152.301 172.228 152.301 172.401C151.548 172.401 150.894 172.544 150.341 172.831C149.788 173.118 149.364 173.514 149.071 174.021C148.778 174.521 148.631 175.088 148.631 175.721C148.631 176.174 148.724 176.528 148.911 176.781C149.098 177.034 149.361 177.161 149.701 177.161C150.321 177.161 150.831 176.768 151.231 175.981C151.631 175.188 151.931 173.994 152.131 172.401C152.204 172.308 152.298 172.234 152.411 172.181C152.531 172.128 152.651 172.101 152.771 172.101C152.938 172.101 153.068 172.141 153.161 172.221C153.261 172.301 153.311 172.411 153.311 172.551C153.311 172.704 153.288 172.888 153.241 173.101C153.201 173.314 153.131 173.628 153.031 174.041C152.871 174.714 152.748 175.298 152.661 175.791C152.574 176.284 152.531 176.788 152.531 177.301C152.531 177.534 152.591 177.708 152.711 177.821C152.504 178.008 152.281 178.101 152.041 178.101C151.814 178.101 151.641 178.031 151.521 177.891C151.401 177.751 151.341 177.548 151.341 177.281C151.341 177.134 151.364 176.934 151.411 176.681L151.311 176.631C151.071 177.098 150.768 177.461 150.401 177.721C150.041 177.974 149.648 178.101 149.221 178.101ZM155.842 178.101C155.608 178.101 155.435 178.044 155.322 177.931C155.215 177.818 155.162 177.638 155.162 177.391C155.162 177.098 155.248 176.494 155.422 175.581C155.602 174.661 155.805 173.751 156.032 172.851L155.582 172.351C155.742 172.211 155.928 172.098 156.142 172.011C156.362 171.924 156.558 171.881 156.732 171.881C156.932 171.881 157.072 171.921 157.152 172.001C157.232 172.081 157.272 172.224 157.272 172.431C157.272 172.604 157.242 172.801 157.182 173.021C157.128 173.241 157.055 173.444 156.962 173.631L157.062 173.681C157.735 172.461 158.608 171.851 159.682 171.851C160.115 171.851 160.435 171.961 160.642 172.181C160.855 172.394 160.962 172.728 160.962 173.181C160.962 173.448 160.932 173.724 160.872 174.011C160.818 174.298 160.738 174.658 160.632 175.091C160.505 175.598 160.412 176.014 160.352 176.341C160.292 176.661 160.262 176.981 160.262 177.301C160.262 177.541 160.305 177.714 160.392 177.821C160.192 178.008 159.978 178.101 159.752 178.101C159.525 178.101 159.355 178.044 159.242 177.931C159.135 177.818 159.082 177.638 159.082 177.391C159.082 177.138 159.108 176.854 159.162 176.541C159.222 176.221 159.305 175.808 159.412 175.301C159.512 174.881 159.585 174.531 159.632 174.251C159.685 173.964 159.712 173.718 159.712 173.511C159.712 172.971 159.508 172.701 159.102 172.701C158.628 172.701 158.178 172.928 157.752 173.381C157.332 173.828 156.992 174.408 156.732 175.121C156.478 175.834 156.352 176.561 156.352 177.301C156.352 177.548 156.392 177.721 156.472 177.821C156.272 178.008 156.062 178.101 155.842 178.101ZM164.27 178.101C163.91 178.101 163.59 178.004 163.31 177.811C163.036 177.618 162.823 177.344 162.67 176.991C162.523 176.631 162.45 176.218 162.45 175.751C162.45 175.078 162.62 174.464 162.96 173.911C163.3 173.351 163.763 172.911 164.35 172.591C164.936 172.264 165.583 172.101 166.29 172.101C166.65 172.101 166.963 172.128 167.23 172.181C167.31 172.308 167.35 172.464 167.35 172.651C166.61 172.651 165.963 172.781 165.41 173.041C164.856 173.301 164.43 173.664 164.13 174.131C163.83 174.591 163.68 175.121 163.68 175.721C163.68 176.174 163.773 176.528 163.96 176.781C164.146 177.034 164.41 177.161 164.75 177.161C165.116 177.161 165.476 176.998 165.83 176.671C166.183 176.344 166.456 175.904 166.65 175.351L166.56 176.711L166.36 176.631C166.12 177.098 165.816 177.461 165.45 177.721C165.09 177.974 164.696 178.101 164.27 178.101ZM167.05 178.101C166.843 178.101 166.686 178.034 166.58 177.901C166.473 177.774 166.42 177.578 166.42 177.311C166.42 177.058 166.49 176.468 166.63 175.541C166.77 174.608 166.94 173.534 167.14 172.321C167.186 172.088 167.226 171.864 167.26 171.651C167.3 171.431 167.336 171.224 167.37 171.031L166.93 170.531C167.09 170.398 167.276 170.294 167.49 170.221C167.703 170.141 167.9 170.101 168.08 170.101C168.266 170.101 168.4 170.144 168.48 170.231C168.56 170.311 168.6 170.451 168.6 170.651C168.6 170.784 168.57 170.991 168.51 171.271C168.456 171.551 168.393 171.858 168.32 172.191C168.1 173.164 167.923 174.044 167.79 174.831C167.656 175.611 167.59 176.404 167.59 177.211C167.59 177.331 167.606 177.448 167.64 177.561C167.68 177.674 167.733 177.761 167.8 177.821C167.693 177.908 167.576 177.974 167.45 178.021C167.33 178.074 167.196 178.101 167.05 178.101ZM174.513 178.101C174.306 178.101 174.143 178.041 174.023 177.921C173.903 177.801 173.843 177.578 173.843 177.251C173.843 176.924 173.886 176.551 173.973 176.131C174.059 175.711 174.186 175.171 174.353 174.511C174.506 173.911 174.619 173.434 174.693 173.081C174.766 172.721 174.803 172.411 174.803 172.151C174.803 171.911 174.769 171.641 174.703 171.341L174.683 171.261C174.796 171.141 174.946 171.048 175.133 170.981C175.319 170.908 175.503 170.871 175.683 170.871C175.876 170.871 176.016 170.914 176.103 171.001C176.189 171.088 176.233 171.231 176.233 171.431C176.233 171.591 176.199 171.798 176.133 172.051C176.073 172.304 175.973 172.661 175.833 173.121C175.579 173.961 175.379 174.694 175.233 175.321C175.093 175.941 175.026 176.568 175.033 177.201L175.353 177.741C175.233 177.861 175.096 177.951 174.943 178.011C174.796 178.071 174.653 178.101 174.513 178.101ZM174.003 173.471C173.836 173.471 173.716 173.441 173.643 173.381C173.569 173.314 173.533 173.214 173.533 173.081C173.533 172.908 173.586 172.744 173.693 172.591C173.879 172.651 174.183 172.681 174.603 172.681C174.856 172.681 175.189 172.644 175.603 172.571C175.776 172.544 175.956 172.521 176.143 172.501C176.329 172.474 176.499 172.461 176.653 172.461C176.826 172.461 176.946 172.494 177.013 172.561C177.079 172.628 177.113 172.728 177.113 172.861C177.113 173.034 177.059 173.191 176.953 173.331C176.853 173.304 176.716 173.284 176.543 173.271C176.376 173.251 176.219 173.241 176.073 173.241C175.933 173.241 175.773 173.254 175.593 173.281C175.413 173.301 175.239 173.324 175.073 173.351C174.593 173.431 174.236 173.471 174.003 173.471ZM178.385 178.101C178.152 178.101 177.979 178.041 177.865 177.921C177.752 177.801 177.695 177.624 177.695 177.391C177.695 177.158 177.752 176.721 177.865 176.081C177.979 175.434 178.169 174.421 178.435 173.041C178.502 172.708 178.569 172.374 178.635 172.041C178.702 171.701 178.765 171.364 178.825 171.031L178.385 170.531C178.539 170.398 178.722 170.294 178.935 170.221C179.155 170.141 179.355 170.101 179.535 170.101C179.722 170.101 179.855 170.144 179.935 170.231C180.015 170.311 180.055 170.451 180.055 170.651C180.055 170.778 180.035 170.944 179.995 171.151C179.955 171.351 179.889 171.638 179.795 172.011C179.615 172.738 179.485 173.301 179.405 173.701L179.505 173.751C179.872 173.091 180.295 172.611 180.775 172.311C181.255 172.004 181.739 171.851 182.225 171.851C182.652 171.851 182.972 171.961 183.185 172.181C183.399 172.394 183.505 172.728 183.505 173.181C183.505 173.448 183.475 173.724 183.415 174.011C183.362 174.298 183.282 174.658 183.175 175.091C183.049 175.598 182.955 176.014 182.895 176.341C182.835 176.661 182.805 176.981 182.805 177.301C182.805 177.554 182.849 177.728 182.935 177.821C182.729 178.008 182.515 178.101 182.295 178.101C182.062 178.101 181.892 178.041 181.785 177.921C181.679 177.801 181.625 177.624 181.625 177.391C181.625 177.138 181.652 176.854 181.705 176.541C181.765 176.221 181.849 175.808 181.955 175.301C182.055 174.881 182.129 174.531 182.175 174.251C182.229 173.964 182.255 173.718 182.255 173.511C182.255 172.971 182.052 172.701 181.645 172.701C181.239 172.701 180.819 172.901 180.385 173.301C179.959 173.701 179.602 174.254 179.315 174.961C179.029 175.661 178.885 176.441 178.885 177.301C178.885 177.548 178.925 177.721 179.005 177.821C178.812 178.008 178.605 178.101 178.385 178.101ZM187.289 178.101C186.582 178.101 186.029 177.884 185.629 177.451C185.229 177.018 185.029 176.421 185.029 175.661C185.029 174.941 185.185 174.291 185.499 173.711C185.812 173.131 186.245 172.678 186.799 172.351C187.352 172.018 187.969 171.851 188.649 171.851C189.175 171.851 189.585 171.978 189.879 172.231C190.179 172.484 190.329 172.834 190.329 173.281C190.329 173.754 190.159 174.161 189.819 174.501C189.479 174.834 188.982 175.091 188.329 175.271C187.682 175.444 186.899 175.531 185.979 175.531L186.099 174.971C187.092 174.978 187.862 174.831 188.409 174.531C188.962 174.224 189.239 173.798 189.239 173.251C189.239 173.018 189.169 172.831 189.029 172.691C188.889 172.551 188.705 172.481 188.479 172.481C188.085 172.481 187.719 172.628 187.379 172.921C187.039 173.208 186.769 173.601 186.569 174.101C186.369 174.594 186.269 175.134 186.269 175.721C186.269 176.254 186.369 176.674 186.569 176.981C186.769 177.281 187.042 177.431 187.389 177.431C187.822 177.431 188.175 177.294 188.449 177.021C188.722 176.748 188.872 176.384 188.899 175.931C189.159 175.931 189.359 175.981 189.499 176.081C189.639 176.174 189.709 176.324 189.709 176.531C189.709 176.798 189.602 177.054 189.389 177.301C189.175 177.541 188.882 177.734 188.509 177.881C188.142 178.028 187.735 178.101 187.289 178.101ZM197.205 178.101C196.451 178.101 195.845 177.991 195.385 177.771C194.931 177.544 194.705 177.231 194.705 176.831C194.705 176.684 194.741 176.548 194.815 176.421C194.895 176.288 195.001 176.181 195.135 176.101C195.341 176.508 195.621 176.821 195.975 177.041C196.335 177.254 196.725 177.361 197.145 177.361C197.718 177.361 198.178 177.261 198.525 177.061C198.871 176.861 199.045 176.574 199.045 176.201C199.045 176.014 198.975 175.851 198.835 175.711C198.701 175.571 198.528 175.454 198.315 175.361C198.108 175.261 197.825 175.144 197.465 175.011C196.971 174.831 196.571 174.661 196.265 174.501C195.965 174.341 195.705 174.128 195.485 173.861C195.265 173.588 195.155 173.251 195.155 172.851C195.155 172.418 195.301 172.031 195.595 171.691C195.895 171.344 196.311 171.074 196.845 170.881C197.385 170.688 198.005 170.591 198.705 170.591C199.111 170.591 199.475 170.634 199.795 170.721C200.121 170.801 200.375 170.914 200.555 171.061C200.741 171.208 200.835 171.378 200.835 171.571C200.835 171.851 200.741 172.068 200.555 172.221C200.375 172.368 200.135 172.441 199.835 172.441C199.528 172.441 199.271 172.351 199.065 172.171C198.858 171.984 198.701 171.714 198.595 171.361C197.921 171.441 197.395 171.604 197.015 171.851C196.635 172.091 196.445 172.378 196.445 172.711C196.445 172.884 196.511 173.038 196.645 173.171C196.778 173.298 196.945 173.408 197.145 173.501C197.345 173.588 197.628 173.701 197.995 173.841C198.481 174.014 198.881 174.181 199.195 174.341C199.508 174.501 199.775 174.714 199.995 174.981C200.221 175.248 200.335 175.578 200.335 175.971C200.335 176.358 200.211 176.714 199.965 177.041C199.725 177.361 199.368 177.618 198.895 177.811C198.428 178.004 197.865 178.101 197.205 178.101ZM204.193 178.101C203.486 178.101 202.933 177.884 202.533 177.451C202.133 177.018 201.933 176.421 201.933 175.661C201.933 174.941 202.089 174.291 202.403 173.711C202.716 173.131 203.149 172.678 203.703 172.351C204.256 172.018 204.873 171.851 205.553 171.851C206.079 171.851 206.489 171.978 206.783 172.231C207.083 172.484 207.233 172.834 207.233 173.281C207.233 173.754 207.063 174.161 206.723 174.501C206.383 174.834 205.886 175.091 205.233 175.271C204.586 175.444 203.803 175.531 202.883 175.531L203.003 174.971C203.996 174.978 204.766 174.831 205.313 174.531C205.866 174.224 206.143 173.798 206.143 173.251C206.143 173.018 206.073 172.831 205.933 172.691C205.793 172.551 205.609 172.481 205.383 172.481C204.989 172.481 204.623 172.628 204.283 172.921C203.943 173.208 203.673 173.601 203.473 174.101C203.273 174.594 203.173 175.134 203.173 175.721C203.173 176.254 203.273 176.674 203.473 176.981C203.673 177.281 203.946 177.431 204.293 177.431C204.726 177.431 205.079 177.294 205.353 177.021C205.626 176.748 205.776 176.384 205.803 175.931C206.063 175.931 206.263 175.981 206.403 176.081C206.543 176.174 206.613 176.324 206.613 176.531C206.613 176.798 206.506 177.054 206.293 177.301C206.079 177.541 205.786 177.734 205.413 177.881C205.046 178.028 204.639 178.101 204.193 178.101ZM210.237 178.101C209.877 178.101 209.557 178.004 209.277 177.811C209.003 177.618 208.79 177.344 208.637 176.991C208.49 176.631 208.417 176.218 208.417 175.751C208.417 175.031 208.587 174.374 208.927 173.781C209.267 173.181 209.73 172.711 210.317 172.371C210.903 172.024 211.55 171.851 212.257 171.851C212.563 171.851 212.877 171.878 213.197 171.931C213.277 172.071 213.317 172.228 213.317 172.401C212.563 172.401 211.91 172.544 211.357 172.831C210.803 173.118 210.38 173.514 210.087 174.021C209.793 174.521 209.647 175.088 209.647 175.721C209.647 176.174 209.74 176.528 209.927 176.781C210.113 177.034 210.377 177.161 210.717 177.161C211.337 177.161 211.847 176.768 212.247 175.981C212.647 175.188 212.947 173.994 213.147 172.401C213.22 172.308 213.313 172.234 213.427 172.181C213.547 172.128 213.667 172.101 213.787 172.101C213.953 172.101 214.083 172.141 214.177 172.221C214.277 172.301 214.327 172.411 214.327 172.551C214.327 172.704 214.303 172.888 214.257 173.101C214.217 173.314 214.147 173.628 214.047 174.041C213.887 174.714 213.763 175.298 213.677 175.791C213.59 176.284 213.547 176.788 213.547 177.301C213.547 177.534 213.607 177.708 213.727 177.821C213.52 178.008 213.297 178.101 213.057 178.101C212.83 178.101 212.657 178.031 212.537 177.891C212.417 177.751 212.357 177.548 212.357 177.281C212.357 177.134 212.38 176.934 212.427 176.681L212.327 176.631C212.087 177.098 211.783 177.461 211.417 177.721C211.057 177.974 210.663 178.101 210.237 178.101Z" fill="#979797"/>
<path d="M443.377 152.701H281.145C267.844 152.701 255.805 144.667 250.477 132.233H474.044C468.716 144.667 456.677 152.701 443.377 152.701Z" fill="white"/>
<path d="M456.8 132.233C451.471 144.667 439.433 152.701 426.132 152.701H443.376C456.677 152.701 468.716 144.667 474.044 132.233H456.8Z" fill="#E4E4E4"/>
<path d="M481.891 24.1135C473.76 12.8708 459.623 13.1157 447.073 16.4369C446.683 22.3291 446.09 27.9532 445.32 33.3158C461.843 27.3496 467.409 30.7004 469.255 33.2523C477.643 44.8505 465.08 76.6483 438.46 97.2248C432.743 101.644 427.368 103.106 422.029 101.698C421.547 101.57 421.067 101.417 420.589 101.247C417.32 106.133 414.021 110.364 410.856 113.986C413.209 115.195 415.596 116.126 418.016 116.767C420.278 117.366 422.942 117.8 425.92 117.8C432.18 117.799 439.822 115.882 447.997 109.563C462.332 98.4824 474.534 83.2135 481.474 67.6724C489.332 50.0757 489.48 34.6063 481.891 24.1135V24.1135Z" fill="white"/>
<path d="M447.603 2.42277C446.69 101.375 389.867 132.233 389.867 132.233H312.336C312.336 132.233 255.513 101.375 254.6 2.42277C254.586 1.08965 255.656 0 256.989 0H445.213C446.547 0.000462891 447.617 1.08965 447.603 2.42277Z" fill="white"/>
<path d="M434.436 99.8706C430.19 102.171 426.099 102.771 422.03 101.697C421.547 101.569 421.067 101.416 420.59 101.246C417.32 106.132 414.021 110.363 410.856 113.986C413.209 115.194 415.596 116.125 418.016 116.766C418.864 116.991 419.769 117.192 420.726 117.356C425.07 112.763 429.8 106.991 434.436 99.8706V99.8706Z" fill="#DFDFDF"/>
<path d="M445.32 33.3157C450.961 31.2785 455.324 30.3291 458.699 30.0615C459.336 25.0776 459.821 19.8747 460.134 14.4482C455.796 14.5348 451.343 15.3069 447.073 16.4368C446.683 22.329 446.09 27.9526 445.32 33.3157V33.3157Z" fill="#DFDFDF"/>
<path d="M436.345 0.00146484C436.345 100.874 378.599 132.234 378.599 132.234H389.868C389.868 132.234 446.689 101.376 447.604 2.42331C447.616 1.09111 446.546 0.00146484 445.215 0.00146484H436.345Z" fill="#E4E4E4"/>
<path d="M256.87 33.2241C267.566 107.907 312.335 132.234 312.335 132.234H351.1H351.103H389.869C389.869 132.234 434.638 107.907 445.333 33.2241H256.87Z" fill="#BFE3AF"/>
<path d="M434.063 33.2241C423.368 107.905 378.6 132.233 378.599 132.234H389.868C389.868 132.234 434.637 107.907 445.333 33.2241H434.063Z" fill="#9BAC93"/>
<path d="M331.836 0.000488281V62.2033C331.836 64.1812 330.231 65.787 328.252 65.787C326.274 65.787 324.669 64.1817 324.669 62.2033V0.000488281H331.836Z" fill="white"/>
<path d="M336.757 106.088H319.542C314.251 106.088 309.961 101.798 309.961 96.5072V71.8161C309.961 71.1602 310.231 70.5334 310.706 70.0826L326.505 55.1035C327.427 54.2295 328.871 54.2295 329.793 55.1035L345.592 70.0826C346.068 70.5339 346.337 71.1607 346.337 71.8161V96.5072C346.337 101.798 342.048 106.088 336.757 106.088V106.088Z" fill="#F2D7C3"/>
<path d="M326.505 55.1035L321.564 59.7879L336.968 74.3921C337.445 74.8444 337.715 75.473 337.715 76.1303V100.819C337.715 102.766 337.13 104.575 336.132 106.088H336.757C342.048 106.088 346.337 101.798 346.337 96.5072V71.8161C346.337 71.1602 346.068 70.5334 345.592 70.0826L329.793 55.1035C328.872 54.2295 327.427 54.2295 326.505 55.1035V55.1035Z" fill="#ECBCBA"/>
</svg>
