<svg width="40" height="40" viewBox="0 0 40 40" fill="none" xmlns="http://www.w3.org/2000/svg">
<circle cx="20" cy="20" r="19.5" fill="#F6615A" stroke="#F6615A"/>
<path d="M15.724 15.1411H12.512C12.3694 15.1411 12.2539 15.2569 12.2539 15.3997V25.7413C12.2539 25.8842 12.3694 26 12.512 26H15.724C15.8665 26 15.9821 25.8842 15.9821 25.7413V15.3997C15.9821 15.2569 15.8665 15.1411 15.724 15.1411Z" fill="white"/>
<path d="M14.1195 10C12.9508 10 12 10.9519 12 12.1219C12 13.2924 12.9508 14.2446 14.1195 14.2446C15.2873 14.2446 16.2374 13.2923 16.2374 12.1219C16.2374 10.9519 15.2873 10 14.1195 10Z" fill="white"/>
<path d="M23.8948 14.884C22.6047 14.884 21.6511 15.4398 21.0727 16.0714V15.3997C21.0727 15.2569 20.9572 15.1411 20.8146 15.1411H17.7385C17.596 15.1411 17.4805 15.2569 17.4805 15.3997V25.7413C17.4805 25.8841 17.596 25.9999 17.7385 25.9999H20.9435C21.0861 25.9999 21.2016 25.8841 21.2016 25.7413V20.6246C21.2016 18.9004 21.6689 18.2287 22.8682 18.2287C24.1743 18.2287 24.2781 19.3055 24.2781 20.7133V25.7413C24.2781 25.8842 24.3936 26 24.5362 26H27.7423C27.8849 26 28.0004 25.8842 28.0004 25.7413V20.0688C28.0004 17.505 27.5126 14.884 23.8948 14.884Z" fill="white"/>
</svg>
