<svg width="40" height="40" viewBox="0 0 40 40" fill="none" xmlns="http://www.w3.org/2000/svg">
<circle cx="20" cy="20" r="19.5" fill="#F6615A" stroke="#F6615A"/>
<path d="M30.6819 13.9353C30.2375 14.1324 29.7763 14.2878 29.3029 14.4004C29.8245 13.9047 30.2166 13.2848 30.4379 12.5929C30.501 12.3954 30.2865 12.2245 30.1081 12.3303C29.4496 12.7209 28.7403 13.0139 27.9999 13.2013C27.9569 13.2122 27.9126 13.2177 27.8681 13.2177C27.7332 13.2177 27.6021 13.1676 27.499 13.0767C26.7112 12.3824 25.6979 12 24.646 12C24.1908 12 23.7312 12.0709 23.28 12.2109C21.8819 12.6445 20.8031 13.7978 20.4647 15.2207C20.3377 15.7544 20.3033 16.2886 20.3624 16.8084C20.3692 16.8681 20.3409 16.9098 20.3235 16.9294C20.293 16.9636 20.2496 16.9833 20.2046 16.9833C20.1996 16.9833 20.1944 16.983 20.1893 16.9826C17.1289 16.6982 14.3691 15.2238 12.4184 12.831C12.3189 12.7089 12.1282 12.7239 12.0489 12.8599C11.6669 13.5152 11.465 14.2648 11.465 15.0275C11.465 16.1965 11.9347 17.298 12.7504 18.1011C12.4074 18.0198 12.0753 17.8917 11.7669 17.7204C11.6177 17.6375 11.4341 17.744 11.432 17.9147C11.4107 19.6512 12.4273 21.1964 13.9504 21.8922C13.9197 21.8929 13.889 21.8932 13.8583 21.8932C13.6169 21.8932 13.3725 21.8699 13.1319 21.8239C12.9638 21.7919 12.8227 21.9513 12.8748 22.1142C13.3692 23.6575 14.698 24.7952 16.2883 25.0535C14.9685 25.9394 13.4316 26.4068 11.8319 26.4068L11.3332 26.4065C11.1796 26.4065 11.0496 26.5066 11.0105 26.6554C10.9719 26.802 11.0429 26.9566 11.174 27.0329C12.9765 28.0819 15.0326 28.6363 17.1207 28.6363C18.9486 28.6363 20.6584 28.2736 22.2027 27.5582C23.6184 26.9024 24.8694 25.965 25.921 24.7719C26.9007 23.6605 27.6667 22.3775 28.1978 20.9587C28.7041 19.6061 28.9717 18.163 28.9717 16.7852V16.7195C28.9717 16.4983 29.0717 16.2901 29.2463 16.1484C29.9087 15.6106 30.4856 14.9775 30.9608 14.2667C31.0862 14.079 30.8884 13.8437 30.6819 13.9353Z" fill="white"/>
</svg>
